<svg xmlns="http://www.w3.org/2000/svg" viewBox="0 0 925.58 214.55"><defs><style>.cls-1{fill:#8792fd;}</style></defs><title>Fichier 3</title><g id="Calque_2" data-name="Calque 2"><g id="Calque_1-2" data-name="Calque 1"><circle class="cls-1" cx="45.38" cy="55.4" r="45.38"/><circle class="cls-1" cx="83.38" cy="66.4" r="45.38"/><ellipse class="cls-1" cx="890.83" cy="28.5" rx="34.75" ry="28.5"/><ellipse class="cls-1" cx="880.16" cy="55.17" rx="34.75" ry="28.5"/><ellipse class="cls-1" cx="850.46" cy="65.07" rx="34.75" ry="28.5"/><ellipse class="cls-1" cx="734.83" cy="109.2" rx="34.75" ry="28.5"/><ellipse class="cls-1" cx="820.92" cy="75.21" rx="34.75" ry="28.5"/><ellipse class="cls-1" cx="762.16" cy="97.87" rx="34.75" ry="28.5"/><ellipse class="cls-1" cx="800.32" cy="91.85" rx="55.75" ry="28.5" transform="translate(10.66 251.16) rotate(-17.95)"/><ellipse class="cls-1" cx="466.76" cy="118.03" rx="42.16" ry="70.08" transform="matrix(0.16, -0.99, 0.99, 0.16, 273.35, 558.92)"/><ellipse class="cls-1" cx="357.15" cy="113.31" rx="34.75" ry="28.5"/><ellipse class="cls-1" cx="548.76" cy="150.64" rx="70.08" ry="55.25"/><circle class="cls-1" cx="629.26" cy="159.31" r="55.25"/><ellipse class="cls-1" cx="164.07" cy="93.03" rx="28.5" ry="55.87" transform="translate(5.59 195.29) rotate(-62.39)"/><ellipse class="cls-1" cx="211.82" cy="127.22" rx="34.75" ry="28.5"/><ellipse class="cls-1" cx="291.15" cy="130.31" rx="34.75" ry="28.5"/><ellipse class="cls-1" cx="320.9" cy="120.65" rx="34.75" ry="28.5"/></g></g></svg>