<?xml version="1.0" encoding="utf-8"?>
<!-- Generator: Adobe Illustrator 23.0.1, SVG Export Plug-In . SVG Version: 6.00 Build 0)  -->
<svg version="1.1" id="Calque_1" xmlns="http://www.w3.org/2000/svg" xmlns:xlink="http://www.w3.org/1999/xlink" x="0px" y="0px"
	 viewBox="0 0 925.6 214.6" style="enable-background:new 0 0 925.6 214.6;" xml:space="preserve">
<style type="text/css">
	.st0{fill:#8792FD;}
</style>
<title>Fichier 3</title>
<g>
	<g id="Calque_1-2">
		<ellipse class="st0" cx="45.4" cy="56" rx="45.4" ry="42"/>
		<ellipse class="st0" cx="83.4" cy="66.2" rx="45.4" ry="41.2"/>
		<ellipse class="st0" cx="890.8" cy="36.6" rx="34.8" ry="28.5"/>
		<ellipse class="st0" cx="880.2" cy="55.2" rx="34.8" ry="28.5"/>
		<ellipse class="st0" cx="850.5" cy="65.1" rx="34.8" ry="28.5"/>
		<ellipse class="st0" cx="734.8" cy="109.2" rx="34.8" ry="28.5"/>
		<ellipse class="st0" cx="820.9" cy="75.2" rx="34.8" ry="28.5"/>
		<ellipse class="st0" cx="762.2" cy="97.9" rx="34.8" ry="28.5"/>
		
			<ellipse transform="matrix(0.9513 -0.3082 0.3082 0.9513 10.6345 251.1261)" class="st0" cx="800.3" cy="91.9" rx="55.8" ry="28.5"/>
		
			<ellipse transform="matrix(0.1595 -0.9872 0.9872 0.1595 258.1508 556.4247)" class="st0" cx="455.8" cy="126.6" rx="42.3" ry="70.3"/>
		<ellipse class="st0" cx="357.1" cy="113.3" rx="34.8" ry="28.5"/>
		<ellipse class="st0" cx="548.8" cy="142.1" rx="70.1" ry="46.8"/>
		<ellipse class="st0" cx="629.3" cy="132.5" rx="55.3" ry="45.5"/>
		<ellipse transform="matrix(0.4635 -0.8861 0.8861 0.4635 5.6671 195.3168)" class="st0" cx="164.1" cy="93" rx="28.5" ry="55.9"/>
		<ellipse class="st0" cx="211.8" cy="127.2" rx="34.8" ry="28.5"/>
		<ellipse class="st0" cx="291.1" cy="130.3" rx="34.8" ry="28.5"/>
		<ellipse class="st0" cx="320.9" cy="120.7" rx="34.8" ry="28.5"/>
	</g>
</g>
</svg>
