<?xml version="1.0" encoding="UTF-8" standalone="no"?>
<svg
   xmlns:dc="http://purl.org/dc/elements/1.1/"
   xmlns:cc="http://creativecommons.org/ns#"
   xmlns:rdf="http://www.w3.org/1999/02/22-rdf-syntax-ns#"
   xmlns:svg="http://www.w3.org/2000/svg"
   xmlns="http://www.w3.org/2000/svg"
   xmlns:sodipodi="http://sodipodi.sourceforge.net/DTD/sodipodi-0.dtd"
   xmlns:inkscape="http://www.inkscape.org/namespaces/inkscape"
   sodipodi:docname="apple_lgo.svg"
   inkscape:version="1.0 (4035a4fb49, 2020-05-01)"
   id="svg2"
   height="1000.0001"
   version="1.1"
   viewBox="0 0 842.32007 1000.0001"
   width="842.32007">
  <metadata
     id="metadata10">
    <rdf:RDF>
      <cc:Work
         rdf:about="">
        <dc:format>image/svg+xml</dc:format>
        <dc:type
           rdf:resource="http://purl.org/dc/dcmitype/StillImage" />
        <dc:title />
      </cc:Work>
    </rdf:RDF>
  </metadata>
  <defs
     id="defs8" />
  <sodipodi:namedview
     inkscape:document-rotation="0"
     inkscape:current-layer="svg2"
     inkscape:window-maximized="1"
     inkscape:window-y="-11"
     inkscape:window-x="-11"
     inkscape:cy="964.94676"
     inkscape:cx="-621.03745"
     inkscape:zoom="0.1767767"
     showgrid="false"
     id="namedview6"
     inkscape:window-height="1346"
     inkscape:window-width="2160"
     inkscape:pageshadow="2"
     inkscape:pageopacity="0"
     guidetolerance="10"
     gridtolerance="10"
     objecttolerance="10"
     borderopacity="1"
     bordercolor="#666666"
     pagecolor="#ffffff" />
  <path
     style="stroke-width:0.565957"
     inkscape:connector-curvature="0"
     id="path4"
     d="m 692.27694,687.66481 c -10.16118,23.47442 -22.1887,45.08246 -36.12403,64.9486 -18.9952,27.08265 -34.54802,45.82899 -46.53407,56.23905 -18.58043,17.08735 -38.48805,25.83841 -59.8058,26.33609 -15.30397,0 -33.76,-4.3548 -55.24364,-13.18878 -21.55413,-8.79258 -41.36221,-13.14731 -59.474,-13.14731 -18.99519,0 -39.36733,4.35473 -61.15786,13.14731 -21.82375,8.83398 -39.40466,13.43765 -52.84645,13.89387 -20.44264,0.87094 -40.8189,-8.12901 -61.15786,-27.04118 -12.98142,-11.3225 -29.21856,-30.73242 -48.66997,-58.22983 -20.86982,-29.36375 -38.0277,-63.41404 -51.46949,-102.2339 -14.39569,-41.93042 -21.6122,-82.53366 -21.6122,-121.8429 0,-45.02854 9.72985,-83.86498 29.21857,-116.4098 15.31643,-26.14117 35.6927,-46.76215 61.19518,-61.90025 25.5025,-15.13807 53.05796,-22.85227 82.73276,-23.34582 16.23713,0 37.53001,5.02252 63.99054,14.89339 26.38589,9.90404 43.32811,14.92657 50.75612,14.92657 5.5534,0 24.3744,-5.87277 56.2805,-17.58091 30.1725,-10.85796 55.63766,-15.35377 76.49918,-13.58282 56.52934,4.56216 98.99893,26.84626 127.24287,66.99328 -50.55706,30.63286 -75.56601,73.53792 -75.06832,128.57833 0.45621,42.87188 16.00904,78.54798 46.57553,106.87488 13.85237,13.1473 29.32226,23.30848 46.53401,30.525 -3.73262,10.82477 -7.67267,21.19332 -11.86157,31.14713 z M 562.62858,177.49065 c 0,33.60279 -12.27638,64.97762 -36.74614,94.01785 -29.52966,34.52314 -65.24722,54.47222 -103.97999,51.32434 -0.49354,-4.0313 -0.77971,-8.27411 -0.77971,-12.73258 0,-32.25865 14.04316,-66.78177 38.98161,-95.00912 12.45054,-14.29199 28.28539,-26.1756 47.48795,-35.65537 19.16108,-9.33834 37.28532,-14.50264 54.3312,-15.387 0.49772,4.49217 0.70508,8.98462 0.70508,13.44144 z" />
</svg>
