<?xml version="1.0" encoding="UTF-8" standalone="no"?>
<svg
   xmlns:dc="http://purl.org/dc/elements/1.1/"
   xmlns:cc="http://creativecommons.org/ns#"
   xmlns:rdf="http://www.w3.org/1999/02/22-rdf-syntax-ns#"
   xmlns:svg="http://www.w3.org/2000/svg"
   xmlns="http://www.w3.org/2000/svg"
   id="svg8"
   version="1.1"
   viewBox="0 0 300 300"
   height="300mm"
   width="300mm">
  <defs
     id="defs2" />
  <metadata
     id="metadata5">
    <rdf:RDF>
      <cc:Work
         rdf:about="">
        <dc:format>image/svg+xml</dc:format>
        <dc:type
           rdf:resource="http://purl.org/dc/dcmitype/StillImage" />
        <dc:title></dc:title>
      </cc:Work>
    </rdf:RDF>
  </metadata>
  <g
     transform="translate(0,3)"
     id="layer1">
    <path
       id="path21"
       d="m 24.539546,246.38171 c -1.92458,-0.10635 -3.27788,-0.3081 -4.68502,-0.69844 -2.35186,-0.65242 -4.32482,-1.78202 -5.80757,-3.32509 -2.20598,-2.29572 -3.44373,-5.5304 -3.67442,-9.60256 -0.0295,-0.52062 -0.0888,-2.2415 -0.0888,-2.5768 v -0.16375 l 4.71549,0.007 4.71549,0.007 0.0635,1.06408 c 0.11624,1.94792 0.24302,2.87258 0.53605,3.90962 0.5781,2.0459 1.65786,3.3644 3.25324,3.97256 0.66363,0.25298 1.32742,0.3674 2.25616,0.3889 1.21686,0.0282 2.01129,-0.12217 2.87017,-0.54315 0.46078,-0.22585 0.80532,-0.47372 1.18001,-0.84893 0.57571,-0.5765 0.99309,-1.27513 1.29476,-2.1672 0.27517,-0.81373 0.39805,-1.5283 0.51947,-3.02092 0.0255,-0.31329 0.0386,-4.11696 0.0506,-14.6931 l 0.0162,-14.27038 4.74465,-0.007 4.74464,-0.007 -2.9e-4,13.14079 c -2.9e-4,7.85704 -0.0116,13.48659 -0.0285,14.0008 -0.0442,1.34712 -0.14267,3.15338 -0.20577,3.77531 -0.37202,3.66694 -1.82788,6.52954 -4.34554,8.54446 -0.30568,0.24464 -1.14045,0.80716 -1.4983,1.00965 -2.03296,1.15035 -4.42919,1.80977 -7.44858,2.04979 -0.53232,0.0423 -2.71874,0.0797 -3.17767,0.0544 z m 36.39748,-0.0143 c -2.45437,-0.13936 -4.70571,-0.70344 -6.67603,-1.6727 -2.27931,-1.12127 -4.03592,-2.6548 -5.42982,-4.74028 -1.88663,-2.82269 -2.85031,-6.58403 -2.76682,-10.79918 0.0185,-0.93313 0.0455,-1.34776 0.13753,-2.11359 0.9054,-7.53114 5.87823,-12.96966 13.04618,-14.2679 1.21807,-0.22062 2.04552,-0.29016 3.46729,-0.29141 1.15651,-0.001 1.48755,0.017 2.40512,0.13117 2.85298,0.35487 5.35244,1.38366 7.4828,3.07996 0.6033,0.48038 1.61974,1.49497 2.09592,2.09211 1.49105,1.86981 2.48774,3.91894 3.08667,6.34605 0.58473,2.36952 0.71146,4.73828 0.40564,7.58178 l -0.018,0.16763 h -11.30759 -11.30758 v 0.0656 c 2e-5,0.0361 0.0204,0.2427 0.0452,0.45916 0.41175,3.58829 1.58682,5.80524 3.60846,6.80792 0.95993,0.4761 2.0684,0.68821 3.37217,0.64528 1.55991,-0.0514 2.87483,-0.4947 3.86364,-1.30264 0.33352,-0.27252 0.81188,-0.79352 1.03764,-1.13015 0.38945,-0.58069 0.72354,-1.36725 0.88177,-2.07596 l 0.0683,-0.30611 4.68323,-0.007 c 3.9379,-0.006 4.68323,-0.001 4.68323,0.0324 0,0.0752 -0.31678,1.17085 -0.45215,1.56386 -0.28305,0.82176 -0.74111,1.83823 -1.14952,2.55088 -0.30157,0.52623 -0.81759,1.28149 -1.21501,1.77833 -0.39868,0.49842 -1.29597,1.42241 -1.74576,1.79772 -2.63137,2.19561 -5.90904,3.38742 -9.92659,3.60947 -0.60922,0.0337 -1.76511,0.0327 -2.37596,-0.002 z m 7.54551,-20.48458 c 0.0372,-0.0629 -0.17045,-1.21516 -0.32961,-1.82935 -0.20493,-0.79077 -0.38826,-1.28792 -0.7095,-1.92393 -0.89408,-1.7702 -2.2464,-2.77323 -4.13324,-3.0657 -0.41061,-0.0636 -1.47515,-0.0719 -1.89214,-0.0147 -2.91948,0.4006 -4.74152,2.4638 -5.50982,6.23909 -0.0634,0.31137 -0.10821,0.57745 -0.0997,0.59129 0.019,0.0308 12.65578,0.0341 12.67397,0.003 z m 61.634484,20.48458 c -2.45437,-0.13936 -4.70571,-0.70344 -6.67603,-1.6727 -2.27932,-1.12127 -4.03592,-2.6548 -5.42982,-4.74028 -1.88663,-2.82269 -2.85031,-6.58403 -2.76682,-10.79918 0.0185,-0.93313 0.0455,-1.34776 0.13753,-2.11359 0.9054,-7.53114 5.87823,-12.96966 13.04618,-14.2679 1.21807,-0.22062 2.04552,-0.29016 3.46729,-0.29141 1.15651,-0.001 1.48755,0.017 2.40512,0.13117 2.85297,0.35487 5.35244,1.38366 7.48279,3.07996 0.60331,0.48038 1.61974,1.49497 2.09593,2.09211 1.49105,1.86981 2.48773,3.91894 3.08667,6.34605 0.58473,2.36952 0.71146,4.73828 0.40563,7.58178 l -0.018,0.16763 h -11.30761 -11.30759 v 0.0656 c 2e-5,0.0361 0.0204,0.2427 0.0452,0.45916 0.41176,3.58829 1.58683,5.80524 3.60847,6.80792 0.95993,0.4761 2.0684,0.68821 3.37217,0.64528 1.55991,-0.0514 2.87483,-0.4947 3.86363,-1.30264 0.33353,-0.27252 0.81189,-0.79352 1.03765,-1.13015 0.38945,-0.58069 0.72354,-1.36725 0.88177,-2.07596 l 0.0683,-0.30611 4.68323,-0.007 c 3.93789,-0.006 4.68322,-0.001 4.68322,0.0324 0,0.0752 -0.31678,1.17085 -0.45215,1.56386 -0.28305,0.82176 -0.7411,1.83823 -1.14951,2.55088 -0.30158,0.52623 -0.81759,1.28149 -1.21502,1.77833 -0.39868,0.49842 -1.29596,1.42241 -1.74576,1.79772 -2.63137,2.19561 -5.90903,3.38742 -9.92658,3.60947 -0.60923,0.0337 -1.76511,0.0327 -2.37597,-0.002 z m 7.54551,-20.48458 c 0.0372,-0.0629 -0.17045,-1.21516 -0.32962,-1.82935 -0.20492,-0.79077 -0.38826,-1.28792 -0.70949,-1.92393 -0.89408,-1.7702 -2.2464,-2.77323 -4.13324,-3.0657 -0.41061,-0.0636 -1.47516,-0.0719 -1.89214,-0.0147 -2.91948,0.4006 -4.74153,2.4638 -5.50982,6.23909 -0.0634,0.31137 -0.10821,0.57745 -0.0997,0.59129 0.019,0.0308 12.65578,0.0341 12.67397,0.003 z m 74.44722,20.49708 c -1.01759,-0.0542 -1.83734,-0.14142 -2.69747,-0.28701 -5.70999,-0.96655 -9.9296,-4.27089 -11.96554,-9.37012 -0.86376,-2.16337 -1.31041,-4.65011 -1.31211,-7.30515 -0.004,-5.68611 2.02188,-10.41276 5.73834,-13.39076 1.59781,-1.28034 3.44957,-2.21697 5.57363,-2.8192 2.39697,-0.67961 5.27106,-0.90344 8.01574,-0.62426 4.80088,0.48832 8.67769,2.50633 11.28209,5.8727 0.31398,0.40583 0.84644,1.203 1.10507,1.65443 1.49827,2.6152 2.27675,5.79255 2.27675,9.29251 0,3.87319 -0.94545,7.32636 -2.76173,10.08693 -0.59272,0.90087 -1.12826,1.55984 -1.87253,2.30411 -2.78545,2.78546 -6.56332,4.33143 -11.18119,4.57556 -0.49751,0.0263 -1.78695,0.0323 -2.20105,0.0103 z m 1.69087,-6.54211 c 1.25474,-0.11588 2.40706,-0.56632 3.30842,-1.29325 0.30428,-0.2454 0.78687,-0.72797 1.02244,-1.0224 1.1175,-1.39673 1.84676,-3.47803 2.09583,-5.98146 0.15468,-1.55464 0.1272,-3.41008 -0.0724,-4.89259 -0.3384,-2.51293 -1.15388,-4.45895 -2.41634,-5.76628 -0.97966,-1.01447 -2.12327,-1.59404 -3.58807,-1.81838 -0.41207,-0.0631 -1.53793,-0.0723 -1.93867,-0.0158 -0.82662,0.11651 -1.4594,0.30859 -2.13197,0.64714 -0.51297,0.25821 -0.83931,0.48014 -1.28629,0.87475 -1.01754,0.89829 -1.83671,2.31154 -2.3236,4.00869 -0.70578,2.46018 -0.79847,5.97674 -0.2297,8.71484 0.66751,3.21344 2.23539,5.34772 4.54186,6.18263 0.89431,0.32373 1.99908,0.45626 3.01853,0.3621 z m 49.19564,6.53021 c -5.65677,-0.28979 -9.74504,-2.31174 -11.88718,-5.8791 -0.73495,-1.22394 -1.23011,-2.62806 -1.49308,-4.2339 -0.0406,-0.24798 -0.0738,-0.48743 -0.0738,-0.53213 v -0.0813 l 4.6845,0.007 4.68451,0.007 0.0638,0.25399 c 0.16634,0.66179 0.52688,1.4893 0.87372,2.00537 0.56995,0.84801 1.38022,1.53444 2.25002,1.90612 0.76492,0.32685 1.432,0.45806 2.33063,0.45842 1.19584,4.7e-4 2.17751,-0.24928 2.91067,-0.74055 0.25741,-0.17248 0.65386,-0.5846 0.80159,-0.83326 0.32895,-0.55371 0.45023,-1.2691 0.33529,-1.97782 -0.17852,-1.1007 -0.91892,-1.91885 -2.40503,-2.65761 -1.14526,-0.56931 -2.40173,-0.98279 -4.84899,-1.59572 -0.67069,-0.16798 -1.4775,-0.38267 -1.79291,-0.47709 -5.03262,-1.50654 -7.731,-3.87387 -8.4431,-7.40726 -0.21803,-1.08186 -0.24531,-2.37953 -0.0737,-3.50654 0.24342,-1.59875 0.85111,-3.00487 1.83513,-4.24629 0.31074,-0.39202 1.03141,-1.11008 1.44374,-1.4385 1.93487,-1.54115 4.53635,-2.49479 7.68181,-2.81599 1.66752,-0.17027 3.5233,-0.14854 4.97058,0.0582 3.93993,0.56284 6.9858,2.40121 8.78797,5.30409 0.84873,1.36712 1.35183,2.77946 1.64861,4.62804 l 0.0199,0.1239 h -4.69123 -4.69122 l -0.0516,-0.24051 c -0.18844,-0.87914 -0.59301,-1.81866 -1.03635,-2.40671 -0.20539,-0.27242 -0.65149,-0.7088 -0.88985,-0.87045 -0.64802,-0.43949 -1.40725,-0.65606 -2.30308,-0.65695 -1.08774,-0.001 -1.92129,0.30858 -2.53971,0.9435 -0.36926,0.37912 -0.56949,0.73426 -0.71758,1.27276 -0.0513,0.18652 -0.0618,0.30866 -0.0633,0.73393 -0.002,0.60516 0.051,0.87214 0.25784,1.29731 0.16182,0.3326 0.34717,0.5763 0.67628,0.88917 0.98497,0.93633 2.82962,1.69161 6.37882,2.61176 1.44033,0.37341 2.16846,0.59287 3.09662,0.93331 2.11482,0.77571 3.65504,1.68058 4.8083,2.82485 1.44135,1.43012 2.21067,3.12473 2.43523,5.36415 0.0547,0.54558 0.0469,1.82492 -0.0142,2.31662 -0.25127,2.02323 -1.03425,3.66762 -2.39478,5.02954 -1.7669,1.76867 -4.45833,2.9524 -7.78381,3.42342 -1.47387,0.20875 -3.23054,0.28387 -4.78109,0.20444 z m 23.52645,0.0113 c -2.3471,-0.20381 -4.19134,-1.73331 -4.75069,-3.93994 -0.11442,-0.45139 -0.16266,-0.80177 -0.18128,-1.31682 -0.10154,-2.80777 1.51785,-5.00862 4.10451,-5.57833 0.49691,-0.10944 0.83146,-0.14394 1.39594,-0.14394 1.02128,0 1.83593,0.18126 2.6675,0.59351 1.034,0.51262 1.79357,1.29022 2.29029,2.34466 0.35901,0.76212 0.5312,1.59639 0.52948,2.56546 -0.001,0.74455 -0.0891,1.31663 -0.29862,1.94597 -0.73614,2.21128 -2.74815,3.57428 -5.2322,3.54446 -0.22458,-0.003 -0.4608,-0.009 -0.52493,-0.015 z m -181.28775,-0.0708 c -3.6961,-0.18207 -5.947094,-1.10844 -7.174224,-2.95245 -0.72958,-1.09636 -1.08367,-2.37465 -1.22029,-4.4054 -0.078,-1.16005 -0.0885,-2.41486 -0.0887,-10.69185 l -2.8e-4,-8.65115 h -2.44885 -2.44885 v -3.0319 -3.03191 h 2.44885 2.44885 v -4.05227 -4.05226 h 4.737354 4.73736 v 4.05226 4.05227 h 3.42547 3.42548 v 3.03191 3.0319 h -3.42548 -3.42547 l 0.002,6.79993 c 0.001,6.79704 0.0228,9.24837 0.0863,9.93388 0.0793,0.85579 0.23734,1.52465 0.47168,1.99603 0.14388,0.28945 0.26203,0.45154 0.4821,0.66146 0.69336,0.66135 1.80479,0.90544 3.9145,0.85968 0.47301,-0.0103 0.95519,-0.0272 1.07151,-0.0376 l 0.21149,-0.0189 -0.007,3.02886 -0.007,3.02886 -0.64142,0.092 c -2.26959,0.3256 -4.61753,0.45296 -6.57394,0.35658 z m 61.57107,-16.85166 c -3.47139,-8.85285 -6.31601,-16.1074 -6.32136,-16.12124 -0.005,-0.014 2.31399,-0.0219 5.25874,-0.0178 l 5.26849,0.007 3.7103,12.42853 c 2.04067,6.8357 3.71507,12.4333 3.72088,12.43911 0.006,0.006 1.66896,-5.5903 3.69586,-12.43582 l 3.68529,-12.4464 h 5.14339 c 4.8864,0 5.14242,0.003 5.12405,0.051 -0.0106,0.0281 -2.84139,7.28278 -6.29056,16.12159 l -6.27122,16.07058 -5.20613,-4.4e-4 -5.20612,-4.3e-4 z m 68.36372,-0.0246 v -16.12159 h 4.75193 4.75194 v 16.12159 16.1216 h -4.75194 -4.75193 z m 3.72638,-19.03955 c -2.06801,-0.31208 -3.51013,-1.63828 -3.89842,-3.58504 -0.23961,-1.20129 -0.10808,-2.44466 0.36214,-3.42358 0.21131,-0.43992 0.45908,-0.78482 0.82808,-1.15273 0.77041,-0.76814 1.72549,-1.19758 2.98718,-1.34317 0.38857,-0.0448 1.46406,-0.0174 1.81066,0.0462 0.83697,0.15354 1.44202,0.38767 2.05431,0.79494 0.95285,0.6338 1.60871,1.64169 1.83655,2.82234 0.17661,0.91518 0.11462,1.97555 -0.16433,2.81095 -0.5718,1.71243 -2.02893,2.81877 -4.03187,3.0612 -0.40864,0.0495 -1.36048,0.0329 -1.7843,-0.0311 z M 78.618306,172.49602 c -2.43306,-0.12315 -4.11842,-0.35699 -6.85095,-0.95057 -20.40107,-4.43171 -36.60017,-10.65396 -47.28682,-18.1634 -6.90021,-4.84872 -11.50814,-10.22201 -13.72919,-16.00953 -1.3603394,-3.54471 -2.2450701,-8.4831 -2.5366698,-14.15917 -0.12606,-2.45395 -0.12631,-5.91864 -6e-4,-8.61471 0.5715697,-12.25891 3.2985198,-25.213419 7.7323198,-36.732743 3.02507,-7.85936 6.80983,-14.8934 11.13294,-20.69075 3.98806,-5.34805 8.36229,-9.61434 13.15908,-12.83437 0.761,-0.51085 1.11119,-0.68156 1.70466,-0.83097 2.04271,-0.51428 5.00482,0.0482 9.31516,1.76889 1.85439,0.74027 3.47049,1.46096 7.3757,3.28914 4.0356,1.88922 5.51242,2.54723 7.36113,3.27981 3.66613,1.45275 6.22551,1.97607 7.91503,1.61839 0.3313,-0.0701 0.33432,-0.0711 2.01156,-0.66476 2.84381,-1.00652 5.04216,-1.7135 7.63807,-2.45638 11.27615,-3.22691 24.596484,-5.32196 40.303984,-6.33909 10.86797,-0.70374 23.32641,-0.86811 35.36254,-0.46654 15.69513,0.52364 30.30054,2.03478 43.10268,4.4596 7.60985,1.44136 14.47512,3.19037 19.94819,5.08205 1.10423,0.38166 1.18519,0.39857 1.90196,0.39726 0.95376,-0.002 1.95538,-0.19896 3.42199,-0.67385 2.02428,-0.65546 4.19612,-1.60073 9.09921,-3.96033 3.90588,-1.87969 5.51635,-2.62305 7.21536,-3.33045 3.78177,-1.57456 6.38637,-2.15889 8.00249,-1.79532 0.52885,0.11897 0.95585,0.34575 2.41084,1.28037 7.62904,4.90058 14.44812,12.28247 20.10096,21.76002 4.12842,6.9217 7.56976,14.881244 10.11142,23.386954 3.5628,11.922909 5.17929,24.357899 4.51659,34.744069 -0.32258,5.05556 -1.20899,9.5439 -2.53617,12.84188 -1.49755,3.72134 -4.10819,7.44089 -7.47872,10.65541 -0.76878,0.7332 -0.88114,0.83748 -1.36947,1.2709 -2.82197,2.50463 -6.36764,4.99486 -10.32327,7.25032 -4.0247,2.29486 -8.73369,4.50357 -13.79961,6.4726 -7.88841,3.06608 -16.78833,5.69489 -26.86446,7.93509 -2.38059,0.52927 -3.21391,0.68436 -4.60811,0.85762 -1.86085,0.23125 -2.69783,0.27718 -5.07068,0.2783 -2.03224,9.7e-4 -2.36273,-0.0101 -3.95023,-0.13223 -5.33339,-0.41032 -11.30395,-1.60759 -19.26584,-3.86335 -2.54251,-0.72035 -4.88215,-1.42131 -10.05305,-3.0119 -5.72349,-1.76057 -7.64641,-2.33922 -10.32916,-3.1083 -9.58991,-2.7492 -16.70165,-4.15103 -23.20576,-4.57418 -1.52593,-0.0993 -2.12184,-0.11702 -3.93565,-0.11724 -1.82133,-2.9e-4 -2.4464,0.0185 -3.92108,0.11722 -5.94416,0.39804 -12.1863,1.64402 -19.92605,3.97741 -2.93544,0.88498 -5.64953,1.77595 -11.74864,3.8568 -3.32005,1.13271 -5.41523,1.8359 -6.95299,2.33355 -8.773824,2.83945 -14.640464,4.1313 -20.552834,4.52582 -0.79168,0.0528 -3.77965,0.0795 -4.54786,0.0407 z m 10.11608,-38.87246 c 1.16626,-0.1411 2.2739,-0.46728 3.36716,-0.99156 5.45007,-2.6136 9.421494,-9.70636 10.187164,-18.1937 0.0978,-1.08417 0.12639,-1.75979 0.12639,-2.98818 0,-1.87163 -0.11218,-3.34663 -0.39021,-5.13092 -0.71003,-4.55671 -2.470177,-8.840791 -4.873874,-11.862651 -0.64622,-0.81241 -1.51269,-1.72206 -2.20705,-2.317039 -1.51366,-1.297009 -3.18444,-2.189409 -4.91228,-2.623749 -0.84922,-0.21347 -1.52992,-0.29383 -2.478,-0.29254 -1.62494,0.002 -3.02017,0.33161 -4.54786,1.07365 -1.40292,0.68144 -2.56169,1.53472 -3.78996,2.790818 -3.47153,3.55017 -5.77246,9.101131 -6.33866,15.291861 -0.11051,1.20837 -0.13109,1.69815 -0.13022,3.09973 9.3e-4,1.48858 0.0367,2.20839 0.17376,3.49835 0.73808,6.94518 3.65184,12.96832 7.85827,16.24412 1.82121,1.41829 3.91351,2.2651 6.03552,2.44275 0.41699,0.0349 1.48038,0.0122 1.91985,-0.0409 z m 122.150944,0.011 c 2.32867,-0.26246 4.48522,-1.26683 6.47108,-3.01377 1.14505,-1.00729 2.31995,-2.40266 3.22547,-3.83071 2.14852,-3.38831 3.54068,-7.71024 3.95993,-12.29351 0.0881,-0.96342 0.10671,-1.35414 0.12341,-2.59461 0.0212,-1.57685 -0.0285,-2.69211 -0.18191,-4.08142 -0.81473,-7.37735 -4.07008,-13.672011 -8.63863,-16.703919 -1.59079,-1.05572 -3.19875,-1.65273 -5.00308,-1.85753 -0.41332,-0.0469 -1.59824,-0.0469 -2.01156,0 -1.76805,0.20069 -3.38413,0.79275 -4.92685,1.80501 -4.088,2.682328 -7.15893,7.962658 -8.36337,14.380469 -0.66905,3.56502 -0.7253,7.4533 -0.16026,11.07813 0.69452,4.45549 2.33555,8.56487 4.6253,11.58241 1.93362,2.54823 4.19094,4.26322 6.68374,5.07792 0.82947,0.27109 1.50533,0.39973 2.59331,0.49362 0.22387,0.0193 1.312,-0.009 1.60342,-0.0421 z"
       style="fill:#000000;stroke-width:0.02915297" />
  </g>
</svg>
