<?xml version="1.0" encoding="UTF-8" standalone="no"?>
<svg
   xmlns:dc="http://purl.org/dc/elements/1.1/"
   xmlns:cc="http://creativecommons.org/ns#"
   xmlns:rdf="http://www.w3.org/1999/02/22-rdf-syntax-ns#"
   xmlns:svg="http://www.w3.org/2000/svg"
   xmlns="http://www.w3.org/2000/svg"
   xmlns:sodipodi="http://sodipodi.sourceforge.net/DTD/sodipodi-0.dtd"
   xmlns:inkscape="http://www.inkscape.org/namespaces/inkscape"
   version="1.1"
   id="Calque_1"
   x="0px"
   y="0px"
   viewBox="0 0 11338.6 7086.6"
   style="enable-background:new 0 0 11338.6 7086.6;"
   xml:space="preserve"
   sodipodi:docname="LOGO_JTV_ALT.svg"
   inkscape:version="1.0 (4035a4fb49, 2020-05-01)"><metadata
   id="metadata11"><rdf:RDF><cc:Work
       rdf:about=""><dc:format>image/svg+xml</dc:format><dc:type
         rdf:resource="http://purl.org/dc/dcmitype/StillImage" /><dc:title></dc:title></cc:Work></rdf:RDF></metadata><defs
   id="defs9" /><sodipodi:namedview
   inkscape:document-rotation="0"
   pagecolor="#ffffff"
   bordercolor="#666666"
   borderopacity="1"
   objecttolerance="10"
   gridtolerance="10"
   guidetolerance="10"
   inkscape:pageopacity="0"
   inkscape:pageshadow="2"
   inkscape:window-width="2160"
   inkscape:window-height="1346"
   id="namedview7"
   showgrid="false"
   inkscape:zoom="0.10371687"
   inkscape:cx="4019.8464"
   inkscape:cy="4886.2549"
   inkscape:window-x="-11"
   inkscape:window-y="-11"
   inkscape:window-maximized="1"
   inkscape:current-layer="Calque_1" />
<style
   type="text/css"
   id="style2">
	.st0{fill:#151515;}
</style>
<path
   class="st0"
   d="M 274.46794,4535.1366 C 7.9931425,3709.1122 349.04289,1664.2387 1461.0171,935.11424 1717.5169,766.96436 2512.1913,1394.4389 2783.8911,1296.589 3098.8158,1183.5391 3868.7903,906.13926 5589.239,906.13926 c 1720.4487,0 2683.748,277.39984 2998.6727,390.44974 214.2249,76.9499 962.8243,-483.54967 1168.9742,-361.47476 C 10947.235,1640.9637 11377.11,3668.7372 11097.81,4535.1366 10886.435,5190.1611 9933.1107,5653.7607 8672.4617,5924.9855 7781.8373,6116.8854 6634.2382,5375.4109 5589.239,5375.8859 4544.7148,5376.3609 3602.7905,6118.3104 2710.7411,5927.3605 1444.8671,5656.6107 486.31779,5192.5361 274.46794,4535.1366 Z M 3295.9407,2700.6879 c -320.6248,0 -580.4496,389.4997 -580.4496,869.7244 0,480.2246 259.8248,869.7243 580.4496,869.7243 320.6248,0 580.4496,-389.4997 580.4496,-869.7243 0,-480.2247 -259.8248,-869.7244 -580.4496,-869.7244 m 4780.8714,0 c -320.6247,0 -580.4495,389.4997 -580.4495,869.7244 0,480.2246 259.8248,869.7243 580.4495,869.7243 320.6248,0 580.4496,-389.4997 580.4496,-869.7243 0,-480.2247 -259.8248,-869.7244 -580.4496,-869.7244 z"
   id="path4"
   style="stroke-width:4.75" />
<path
   id="path831"
   d="M 2863.5846,5948.6421 C 2756.5567,5936.5674 2618.3754,5907.5277 2381.5029,5847.3296 1536.8785,5632.6791 923.57067,5344.1085 578.70143,4999.0841 287.9637,4708.2157 193.45957,4426.063 194.44118,3851.8323 195.56212,3196.1032 363.11334,2483.5861 651.63282,1907.61 851.08349,1509.4434 1128.0672,1167.7406 1408.5336,973.85428 c 95.0359,-65.69818 141.5341,-75.73341 251.1323,-54.19924 111.845,21.97564 221.3767,64.06851 504.4794,193.87086 290.1001,133.0105 404.4487,176.3756 500.2706,189.7207 l 73.8275,10.2819 188.0118,-62.7511 c 419.3245,-139.9543 859.6191,-228.067 1431.7825,-286.53139 457.6548,-46.76373 1079.0489,-66.01591 1613.3642,-49.98564 1035.9555,31.08024 1845.5746,142.82933 2494.553,344.31513 84.797,26.3266 157.0553,43.0448 186.0452,43.0448 78.8444,0 204.8603,-47.8205 507.5709,-192.613 289.5507,-138.49789 416.317,-184.52526 512.407,-186.04903 69.7579,-1.1062 104.937,17.31842 271.8029,142.35373 420.9731,315.4413 781.3621,863.761 1004.4761,1528.2767 228.019,679.1228 289.657,1390.102 163.407,1884.8631 -26.635,104.381 -110.378,271.5798 -185.965,371.2895 -242.126,319.399 -719.694,610.0915 -1362.4753,829.3302 -260.5645,88.8729 -629.8705,190.0232 -876.5929,240.0927 -292.043,59.2669 -580.9057,41.5307 -1002.2297,-61.537 -170.6515,-41.7462 -302.8645,-79.8115 -818.6651,-235.7011 -616.6531,-186.3702 -917.1772,-243.9951 -1273.5693,-244.2042 -381.2981,-0.2237 -636.6624,55.1206 -1345.0078,291.4993 -544.5767,181.7282 -724.2813,231.9817 -946.2851,264.624 -129.8065,19.0861 -337.097,26.1003 -437.2892,14.7969 z m 563.022,-1529.7003 c 69.4746,-21.6831 177.4911,-100.6132 235.1132,-171.8026 313.8146,-387.7028 279.9486,-1104.4645 -67.1972,-1422.2084 -157.7598,-144.3983 -360.4263,-164.1381 -531.5794,-51.7763 -212.1177,139.2551 -348.9592,454.0141 -348.747,802.1785 0.2227,366.1059 165.9635,706.7958 399.7996,821.8124 101.8718,50.1075 199.9819,56.9482 312.6108,21.7964 z m 4716.8665,16.2209 c 215.1074,-39.8863 400.7575,-256.1818 476.64,-555.3194 98.1966,-387.1023 -1.9155,-831.1137 -236.325,-1048.1355 -213.0436,-197.2409 -487.6039,-170.0201 -676.4055,67.0609 -307.1414,385.6821 -275.4548,1092.2559 63.1891,1409.0406 87.5845,81.9309 195.9729,131.7433 295.7683,135.927 13.8592,0.5813 48.5691,-3.2771 77.1331,-8.5736 z"
   style="fill:#ffffff;stroke:none;stroke-width:9.64163" /></svg>
