<?xml version="1.0" encoding="utf-8"?>
<!-- Generator: Adobe Illustrator 22.0.1, SVG Export Plug-In . SVG Version: 6.00 Build 0)  -->
<svg version="1.1" id="_x37_d8641e0-c257-4791-b312-86d1704443b9"
	 xmlns="http://www.w3.org/2000/svg" xmlns:xlink="http://www.w3.org/1999/xlink" x="0px" y="0px" viewBox="0 0 1081 836.7"
	 style="enable-background:new 0 0 1081 836.7;" xml:space="preserve">
<style type="text/css">
	.st0{opacity:0.1;fill:#6C63FF;enable-background:new    ;}
	.st1{opacity:0.1;}
	.st2{fill:#6C63FF;}
	.st3{fill:url(#SVGID_1_);}
	.st4{fill:#535461;}
	.st5{fill:#FAF7FF;}
	.st6{opacity:0.2;}
	.st7{fill:#F6F7F9;}
	.st8{fill:#DCE0ED;}
	.st9{fill:url(#SVGID_2_);}
	.st10{fill:#65617D;}
	.st11{fill:#A27772;}
	.st12{opacity:0.1;enable-background:new    ;}
	.st13{fill:#FBBEBE;}
	.st14{fill:#7C7CDD;}
	.st15{opacity:5.000000e-02;enable-background:new    ;}
	.st16{fill:#4C4242;}
	.st17{opacity:0.99;}
</style>
<title>report</title>
<path class="st0" d="M233.6,82.1c-34.6-1.3-70.8-2.2-102.1,12.7s-55.5,50.8-45,83.9c3.4,10.8,10.1,20.2,15.7,30
	c28.2,49.1,29.5,112.5,3.4,162.8c-20.1,38.7-54.1,68.1-78.7,104.1s-38.4,85.9-14.3,122.2c16.5,24.8,47.2,36.9,76.8,39.9
	c29.7,2.9,59.5-1.7,89.4-2.9c58-2.2,115.8,8.7,169,32c73.2,32.1,136.3,87,213.4,108.2c9.3,2.5,18.9,4.6,28.4,2.9
	c16.8-3.1,29-16.9,42.1-27.9c42-34.7,100.1-41.2,154.5-42.9c54.5-1.6,111.2-0.4,160.4-23.8c43-20.4,76.1-58.4,96.7-101.3
	c20.6-42.9,29.5-90.6,32.9-138.1c2-28.3,1.9-57.4-8.2-83.9c-11.4-29.7-34.4-53.4-58.6-74.1c-25.3-21.6-52.8-41.3-84-52.9
	c-37.3-14-77.7-15.9-117.4-19.3c-81.4-6.8-162.1-19.8-241.5-38.8c-75.4-18-158.1-37.7-226.8-74.4C305.3,82,272.4,83.5,233.6,82.1z"
	/>
<g class="st1">
	<path class="st2" d="M697,627.5c0,0,3.3-46.3,29.4-71.6c11-10.5,18.3-24.3,20.8-39.4c1.1-7.1,1.6-14.4,1.4-21.6"/>
	<path class="st2" d="M764.9,478.9c-1.9,5.1-16.7,16.5-16.7,16.5s-3.7-18.3-1.8-23.4c1.9-5.1,7.6-7.7,12.7-5.8
		C764.2,468.1,766.8,473.8,764.9,478.9z"/>
	<path class="st2" d="M769.6,513c-4.4,3.3-23,4.8-23,4.8s6.8-17.4,11.2-20.6c4.5-3.1,10.6-2.1,13.8,2.4
		C774.6,503.8,773.7,509.7,769.6,513L769.6,513z"/>
	<path class="st2" d="M750.8,561.2c-5.4,0.6-22.3-7.5-22.3-7.5s14.7-11.6,20.1-12.1c5.4-0.3,10.1,3.9,10.4,9.3
		C759.4,555.9,755.8,560.3,750.8,561.2z"/>
	<path class="st2" d="M728.4,594.4c-5.2,1.5-23.2-3.6-23.2-3.6s12.5-13.9,17.7-15.4c5.2-1.7,10.8,1.2,12.4,6.4
		c1.7,5.2-1.2,10.8-6.4,12.4C728.8,594.3,728.6,594.4,728.4,594.4L728.4,594.4z"/>
	<path class="st2" d="M726.8,511.5c2.3,4.9,18,15,18,15s2.2-18.5-0.2-23.5c-2.5-4.9-8.4-6.8-13.3-4.3
		C726.7,501.1,724.7,506.7,726.8,511.5z"/>
	<path class="st2" d="M701.1,550.7c3.7,4,21.7,8.9,21.7,8.9s-3.5-18.3-7.2-22.4c-3.7-4-10-4.2-14-0.5
		C697.6,540.5,697.4,546.7,701.1,550.7z"/>
	<path class="st2" d="M681.3,592.2c3,4.6,19.9,12.5,19.9,12.5s-0.3-18.7-3.3-23.2c-3.1-4.5-9.3-5.6-13.8-2.5
		C679.8,581.9,678.6,587.7,681.3,592.2L681.3,592.2z"/>
	<path class="st2" d="M764.9,478.9c-1.9,5.1-16.7,16.5-16.7,16.5s-3.7-18.3-1.8-23.4c1.9-5.1,7.6-7.7,12.7-5.8
		C764.2,468.1,766.8,473.8,764.9,478.9z"/>
	<path class="st2" d="M769.6,513c-4.4,3.3-23,4.8-23,4.8s6.8-17.4,11.2-20.6c4.5-3.1,10.6-2.1,13.8,2.4
		C774.6,503.8,773.7,509.7,769.6,513L769.6,513z"/>
	<path class="st2" d="M750.8,561.2c-5.4,0.6-22.3-7.5-22.3-7.5s14.7-11.6,20.1-12.1c5.4-0.3,10.1,3.9,10.4,9.3
		C759.4,555.9,755.8,560.3,750.8,561.2z"/>
	<path class="st2" d="M728.4,594.4c-5.2,1.5-23.2-3.6-23.2-3.6s12.5-13.9,17.7-15.4c5.2-1.7,10.8,1.2,12.4,6.4
		c1.7,5.2-1.2,10.8-6.4,12.4C728.8,594.3,728.6,594.4,728.4,594.4L728.4,594.4z"/>
	<path class="st2" d="M726.8,511.5c2.3,4.9,18,15,18,15s2.2-18.5-0.2-23.5c-2.5-4.9-8.4-6.8-13.3-4.3
		C726.7,501.1,724.7,506.7,726.8,511.5z"/>
	<path class="st2" d="M701.1,550.7c3.7,4,21.7,8.9,21.7,8.9s-3.5-18.3-7.2-22.4c-3.7-4-10-4.2-14-0.5
		C697.6,540.5,697.4,546.7,701.1,550.7z"/>
	<path class="st2" d="M681.3,592.2c3,4.6,19.9,12.5,19.9,12.5s-0.3-18.7-3.3-23.2c-3.1-4.5-9.3-5.6-13.8-2.5
		C679.8,581.9,678.6,587.7,681.3,592.2L681.3,592.2z"/>
</g>
<g class="st1">
	<path class="st2" d="M706.1,452.1c0,0,3.3-46.3,29.4-71.6c11-10.5,18.3-24.3,20.8-39.4c1.1-7.1,1.6-14.4,1.4-21.6"/>
	<path class="st2" d="M774,303.6c-1.9,5.1-16.7,16.5-16.7,16.5s-3.7-18.3-1.8-23.4c1.9-5.1,7.6-7.7,12.7-5.8S775.9,298.4,774,303.6z
		"/>
	<path class="st2" d="M778.8,337.6c-4.4,3.3-23,4.8-23,4.8s6.8-17.4,11.2-20.6c4.3-3.4,10.5-2.6,13.9,1.7c3.4,4.3,2.6,10.5-1.7,13.9
		C779.1,337.4,778.9,337.5,778.8,337.6z"/>
	<path class="st2" d="M760,385.8c-5.4,0.6-22.2-7.5-22.2-7.5s14.7-11.6,20.1-12.1c5.4-0.7,10.4,3.1,11.1,8.5
		c0.7,5.4-3.1,10.4-8.5,11.1C760.2,385.8,760.1,385.8,760,385.8L760,385.8z"/>
	<path class="st2" d="M737.6,419c-5.2,1.5-23.2-3.6-23.2-3.6s12.5-13.9,17.7-15.4c5.3-1.4,10.7,1.7,12.1,6.9
		C745.7,412.1,742.7,417.5,737.6,419L737.6,419z"/>
	<path class="st2" d="M735.9,336.1c2.3,4.9,18.1,15,18.1,15s2.2-18.5-0.2-23.5c-2.2-5-8.1-7.2-13.1-5c-5,2.2-7.2,8.1-5,13.1
		C735.8,335.9,735.9,336,735.9,336.1L735.9,336.1z"/>
	<path class="st2" d="M710.2,375.3c3.7,4,21.7,8.9,21.7,8.9s-3.5-18.3-7.2-22.3c-3.8-3.9-10.1-4-14-0.2
		C707,365.4,706.8,371.3,710.2,375.3z"/>
	<path class="st2" d="M690.5,416.8c3,4.6,19.9,12.5,19.9,12.5s-0.3-18.7-3.3-23.2c-2.8-4.7-8.9-6.1-13.6-3.3
		c-4.7,2.8-6.1,8.9-3.3,13.6C690.3,416.5,690.4,416.7,690.5,416.8L690.5,416.8z"/>
	<path class="st2" d="M774,303.6c-1.9,5.1-16.7,16.5-16.7,16.5s-3.7-18.3-1.8-23.4c1.9-5.1,7.6-7.7,12.7-5.8S775.9,298.4,774,303.6z
		"/>
	<path class="st2" d="M778.8,337.6c-4.4,3.3-23,4.8-23,4.8s6.8-17.4,11.2-20.6c4.3-3.4,10.5-2.6,13.9,1.7c3.4,4.3,2.6,10.5-1.7,13.9
		C779.1,337.4,778.9,337.5,778.8,337.6z"/>
	<path class="st2" d="M760,385.8c-5.4,0.6-22.2-7.5-22.2-7.5s14.7-11.6,20.1-12.1c5.4-0.7,10.4,3.1,11.1,8.5
		c0.7,5.4-3.1,10.4-8.5,11.1C760.2,385.8,760.1,385.8,760,385.8L760,385.8z"/>
	<path class="st2" d="M737.6,419c-5.2,1.5-23.2-3.6-23.2-3.6s12.5-13.9,17.7-15.4c5.3-1.4,10.7,1.7,12.1,6.9
		C745.7,412.1,742.7,417.5,737.6,419L737.6,419z"/>
	<path class="st2" d="M735.9,336.1c2.3,4.9,18.1,15,18.1,15s2.2-18.5-0.2-23.5c-2.2-5-8.1-7.2-13.1-5c-5,2.2-7.2,8.1-5,13.1
		C735.8,335.9,735.9,336,735.9,336.1L735.9,336.1z"/>
	<path class="st2" d="M710.2,375.3c3.7,4,21.7,8.9,21.7,8.9s-3.5-18.3-7.2-22.3c-3.8-3.9-10.1-4-14-0.2
		C707,365.4,706.8,371.3,710.2,375.3z"/>
	<path class="st2" d="M690.5,416.8c3,4.6,19.9,12.5,19.9,12.5s-0.3-18.7-3.3-23.2c-2.8-4.7-8.9-6.1-13.6-3.3
		c-4.7,2.8-6.1,8.9-3.3,13.6C690.3,416.5,690.4,416.7,690.5,416.8L690.5,416.8z"/>
</g>
<path class="st0" d="M699.6,792.5c26.8,11.7,59.5,4.6,90,5.4c4.2,0.1,8.6,0.5,11.9,2.5c3.3,2,5,5.3,7.3,8.1
	c8.5,10.4,26,13.7,41.3,12c15.3-1.8,29.3-7.6,43.7-12.1c24.9-7.7,53.4-11.2,77.9-2.8c2.3,0.8,4.7,1.7,7,1.3c5.4-0.7,7-6.3,10.8-9.5
	c6.8-5.8,21.6-4.2,24.6-11.8c1.7-4.4-2.3-9-6.7-12c-16.8-11.6-40.8-13.5-62.8-11.7c-22,1.8-43.6,6.7-65.7,6.8
	c-27.5,0-54.1-7.6-81.4-10.7c-18.9-2.1-39.5-1.9-57.2,4.5C721.2,769.3,717,784.7,699.6,792.5z"/>
<path class="st0" d="M192.2,756.7c45.8,13.2,101.6,5.2,153.5,6.1c7.1,0.1,14.6,0.5,20.3,2.8c5.7,2.3,8.5,6,12.4,9.1
	c14.6,11.8,44.4,15.5,70.4,13.5s50-8.6,74.6-13.6c42.5-8.7,91.1-12.7,133-3.2c3.8,0.9,7.9,1.9,12,1.5c9.2-0.8,11.9-7.1,18.4-10.7
	c11.6-6.5,36.8-4.7,41.9-13.3c3-5-3.9-10.2-11.4-13.6c-28.7-13.1-69.7-15.3-107.2-13.3c-37.5,2-74.4,7.6-112.1,7.6
	c-47,0-92.4-8.6-138.9-12.1c-32.2-2.4-67.4-2.1-97.6,5C229,730.5,221.8,747.9,192.2,756.7z"/>
<linearGradient id="SVGID_1_" gradientUnits="userSpaceOnUse" x1="522.3401" y1="50.9483" x2="522.3401" y2="731.4932" gradientTransform="matrix(1 0 0 -1 -59.52 804.2397)">
	<stop  offset="0" style="stop-color:#808080;stop-opacity:0.25"/>
	<stop  offset="0.54" style="stop-color:#808080;stop-opacity:0.12"/>
	<stop  offset="1" style="stop-color:#808080;stop-opacity:0.1"/>
</linearGradient>
<path class="st3" d="M679.8,72.7H245.9c-21.9,0-39.8,17.7-39.8,39.7c0,0,0,0,0,0v601.2c0,21.9,17.9,39.7,39.8,39.7h433.9
	c21.9,0,39.8-17.7,39.8-39.7c0,0,0,0,0,0V112.4C719.6,90.5,701.7,72.7,679.8,72.7C679.8,72.7,679.8,72.7,679.8,72.7z"/>
<path class="st4" d="M230.8,80.9h463.9c10.3,0,18.7,8.4,18.7,18.7v629c0,10.3-8.4,18.7-18.7,18.7H230.8c-10.3,0-18.7-8.4-18.7-18.7
	v-629C212.2,89.3,220.5,80.9,230.8,80.9z"/>
<rect x="237.6" y="103.7" class="st5" width="450.3" height="619.6"/>
<g class="st6">
	<rect x="237.6" y="103.7" class="st2" width="450.3" height="26.9"/>
</g>
<circle class="st7" cx="251.7" cy="117.1" r="5.7"/>
<circle class="st7" cx="266.4" cy="117.1" r="5.7"/>
<circle class="st7" cx="281" cy="117.1" r="5.7"/>
<rect x="251.1" y="302.7" class="st8" width="419.3" height="1.4"/>
<rect x="251.1" y="335.3" class="st8" width="419.3" height="1.4"/>
<rect x="251.1" y="367.8" class="st8" width="419.3" height="1.4"/>
<rect x="251.1" y="400.3" class="st8" width="419.3" height="1.4"/>
<rect x="251.1" y="432.9" class="st8" width="419.3" height="1.4"/>
<g class="st6">
	<polygon class="st2" points="670.4,434.3 250.6,434.3 250.6,370.3 289.1,389.3 328.9,394.7 363.9,384.1 406.1,351.4 427.3,339.2 
		442.8,336.2 457.7,337 482.1,349 515.2,370.2 541.3,373.5 561.9,366.4 605.7,330.6 628,322.6 651.4,326.2 670.4,337.2 	"/>
</g>
<path class="st2" d="M323.8,394.7c-37.8,0-72.8-23.1-73.2-23.4l1-1.6c0.5,0.4,54.3,35.9,100,18.1c16.7-6.5,28.5-16.6,40-26.4
	c12-10.2,23.3-19.8,38.7-24c17.7-4.8,37-0.5,51.7,11.6c12.6,10.3,37.6,26.9,64,21.9c13.5-2.5,24.8-12.4,36.8-22.8
	c23-20,46.9-40.6,88.1-11l-1.1,1.5c-40-28.8-63.3-8.6-85.8,10.9c-12.2,10.6-23.8,20.5-37.7,23.2c-27.2,5.1-52.7-11.8-65.5-22.3
	c-14.2-11.7-32.9-15.9-50-11.3c-15,4.1-26.2,13.6-38,23.6c-11.6,9.9-23.6,20.1-40.5,26.7C343.2,393,333.5,394.7,323.8,394.7z"/>
<circle class="st2" cx="442.5" cy="336.7" r="10.4"/>
<g class="st6">
	<path class="st2" d="M576.2,202.7H445.1c-1.2,0-2.1,1-2.1,2.1c0,0,0,0,0,0v88.7c0,1.2,1,2.1,2.1,2.1c0.6,0,1.1-0.2,1.5-0.7
		l22.7-24.2c0.4-0.4,1-0.7,1.6-0.7h105.3c1.2,0,2.1-1,2.1-2.1v0v-63.1C578.3,203.7,577.4,202.7,576.2,202.7z"/>
</g>
<g class="st6">
	<rect x="286.5" y="501.1" class="st2" width="20.5" height="9.3"/>
</g>
<g class="st6">
	<rect x="286.5" y="519.2" class="st2" width="20.5" height="9.3"/>
</g>
<g class="st6">
	<rect x="286.5" y="537.2" class="st2" width="20.5" height="9.3"/>
</g>
<g class="st6">
	<rect x="286.5" y="555.3" class="st2" width="20.5" height="9.3"/>
</g>
<g class="st6">
	<rect x="286.5" y="573.3" class="st2" width="20.5" height="9.3"/>
</g>
<g class="st6">
	<rect x="286.5" y="591.4" class="st2" width="20.5" height="9.3"/>
</g>
<g class="st6">
	<rect x="286.5" y="609.4" class="st2" width="20.5" height="9.3"/>
</g>
<g class="st6">
	<rect x="286.5" y="627.5" class="st2" width="20.5" height="9.3"/>
</g>
<g class="st6">
	<rect x="325.1" y="636.8" class="st2" width="20.5" height="9.3"/>
</g>
<g class="st6">
	<rect x="361.2" y="636.8" class="st2" width="20.5" height="9.3"/>
</g>
<g class="st6">
	<rect x="397.3" y="636.8" class="st2" width="20.5" height="9.3"/>
</g>
<g class="st6">
	<rect x="433.4" y="636.8" class="st2" width="20.5" height="9.3"/>
</g>
<g class="st6">
	<rect x="469.6" y="636.8" class="st2" width="20.5" height="9.3"/>
</g>
<g class="st6">
	<rect x="505.7" y="636.8" class="st2" width="20.5" height="9.3"/>
</g>
<g class="st6">
	<rect x="541.8" y="636.8" class="st2" width="20.5" height="9.3"/>
</g>
<g class="st6">
	<rect x="577.9" y="636.8" class="st2" width="20.5" height="9.3"/>
</g>
<g class="st6">
	<rect x="614" y="636.8" class="st2" width="20.5" height="9.3"/>
</g>
<rect x="325.1" y="569" class="st2" width="20.5" height="58.5"/>
<rect x="361.2" y="541.9" class="st2" width="20.5" height="85.6"/>
<rect x="397.3" y="519.2" class="st2" width="20.5" height="108.3"/>
<rect x="433.4" y="530.9" class="st2" width="20.5" height="96.6"/>
<rect x="469.6" y="510.4" class="st2" width="20.5" height="117.1"/>
<g class="st6">
	<rect x="505.7" y="555.3" class="st2" width="20.5" height="72.2"/>
</g>
<g class="st6">
	<rect x="541.8" y="555.3" class="st2" width="20.5" height="72.2"/>
</g>
<g class="st6">
	<rect x="577.9" y="555.3" class="st2" width="20.5" height="72.2"/>
</g>
<g class="st6">
	<rect x="614" y="555.3" class="st2" width="20.5" height="72.2"/>
</g>
<linearGradient id="SVGID_2_" gradientUnits="userSpaceOnUse" x1="921.8196" y1="11.9936" x2="921.8196" y2="628.2449" gradientTransform="matrix(1 0 0 -1 -59.52 804.2397)">
	<stop  offset="0" style="stop-color:#808080;stop-opacity:0.25"/>
	<stop  offset="0.54" style="stop-color:#808080;stop-opacity:0.12"/>
	<stop  offset="1" style="stop-color:#808080;stop-opacity:0.1"/>
</linearGradient>
<path class="st9" d="M954.4,293.9c-22.2-12.8-30.6-15.9-30.6-16l-0.4-0.3c-2.4-1.9-4.3-4.3-5.6-7.1c0-0.5,0-1,0-1.5v0.1
	c0.4-6.8,5.2-12.9,9.7-18.3l11.7-13.7c1.3-1.4,2.4-3,3-4.8c0.2-1,0.3-1.9,0.3-2.9c0-0.4,0-0.8,0-1.2c-0.1-3.4-0.2-6.8-0.3-10.3
	c-0.1-3-0.9-6.7-3.9-7.4c-1.6-0.3-3.6,0.2-4.4-1.1c-0.3-0.5-0.3-1.2-0.2-1.8c0,0,0,0.1,0,0.1v-0.2c0.6-2.3,1-4.6,1.1-7
	c0.1-1.2-0.1-2.4-0.5-3.5c-1.7-4.9-7.7-7-12.9-7.9c-5.3-0.9-11.1-1.7-14.4-5.8c-1-1.3-1.7-2.8-2.9-4c-1.5-1.3-3.4-2.3-5.4-2.7
	c-6.5-1.6-13.4-1-19.5,1.7c-2.5,1.1-5.1,2.7-7.9,2.5s-5.4-2.2-8.2-2.7c-4.6-0.8-9,2.6-11.3,6.6c-1.3,2.4-2.1,5.1-2.1,7.8
	c0,0.1,0,0.3,0,0.5l0,0c-0.1,2.9,1,5.8,3,8c2,2.1,5,3.5,5.8,6.2c0.3,1.1,0.3,2.3,0.6,3.4c0,0.1,0.1,0.3,0.1,0.4l-0.1,0.2
	c-4.8,6.1-7.3,13.6-7.3,21.4c0.1,15.4,10.2,29,24.9,33.6c0,0.3,0,0.7,0,1c0,4.2-1.2,8.6-4.8,11.7l-31.4,12.6c0,0-18.9-2.3-25.8,25.4
	c-1.1,4.6-1.5,9.3-1.2,14.1c0.3,4.2-0.3,11.5-5.2,21.1c-7.8,15.2-6,50.2,9.9,53.6c15,3.3,20.9,1.9,21.5,1.7v0.6
	c-0.2,6.5-2.6,63.1-11.3,70c-2.4,1.9-1.9,3.2,0,4c0,0,0,0.4-0.1,1c-0.3,4.1-1.6,19.9-7.4,28.9c-6.7,10.4-6,70.3-6,70.3l-4.5,35.3
	c0,0,2.8,21.8,0,25.6c-2.5,3.4-5.9,84.1-6.5,101.5h-0.3c-2.8,0.2-5.4,1.7-6.8,4.1c-3.7,6-16.7,17.2-16.7,17.2
	c-2.8,4-13.3,7.8-18.8,9.6c-0.7,0.2-1.5,0.6-2.1,0.9c-2.1,1.1-3.7,2.9-4.7,5c-0.7,1.3-0.9,2.8-0.5,4.2c1.4,3.5,30.7,5.9,38.2,2.4
	c5.8-2.7,29-6.3,38.5-7.7c3.6-0.5,6.4-3.3,6.9-6.9c0.2-1.2-0.2-2.5-0.9-3.4l0,0c-1.9-2.3-2.8-8.5-3.2-12.5c0.8-0.3,1.5-0.7,2.2-1.3
	c-0.8-12.6,1-25.2,5.3-37c7.1-18.7,9.2-53.3,7.5-75.8c0,0,21.6-92.7,38.5-101.4l0,0c0.3,0.3,8.5,10.9,9.5,43.6
	c1.1,33.2,13.1,55,13.1,55s-5.3,56.4,0,77.5l-6.9,33.3c-0.5-0.4-0.8-0.8-0.8-0.8s0.2,0.9,0.5,2.4l-0.1,0.7l0.3,0.1
	c0.8,4.2,2,11.4,1.5,15.7c-0.3,2.4-0.9,5.7-1.4,9c-0.7,5.1-0.9,10.1,1.8,11.2c4.4,1.8,30.4,4.2,34.8-1.5c2-2.4,2.5-5.7,1.3-8.6
	c-0.3-0.8-0.8-1.5-1.3-2.2c0,0-6.9-11.3-4.9-19.2c0.4-1.6,0.1-3.2-0.8-4.6c0.3-3.9,1.9-22,5.9-37.3c4.4-16.7,13.7-53.2,6.9-77.2l0,0
	c-0.3-0.9-0.6-1.9-0.9-2.8c-4-13.1-5.3-26.9-3.9-40.5c-2.5-11.6-2.5-23.7,0-35.3c4.2-19.4,7.2-38.4,7.2-38.4s2.3-25.6,0.3-41.3
	l-0.1-1l1.1-0.3c0,0-6-26.6-8.1-43.6c-0.5-4-1.2-9.1-1.9-14.5c2-0.3,3.9-0.8,5.8-1.4c19-6.6,25-66.1,25-66.1v-18.9
	C970.2,335.6,976.6,306.7,954.4,293.9z M812.2,753.5c-0.6-0.3-0.9-0.5-0.9-0.5l0,0L812.2,753.5z"/>
<path class="st10" d="M942.8,637.4c8.3,23.8-1.4,62.4-5.9,79.7s-5.9,37.9-5.9,37.9c-17.6,2.8-30.3-0.7-30.3-0.7l7.2-35.5
	c-5.2-21,0-77.2,0-77.2s-11.7-21.7-12.8-54.8c-1-32.6-9-43.1-9.3-43.4l0,0c-16.5,8.6-37.6,101.1-37.6,101.1
	c1.7,22.4-0.3,56.9-7.2,75.5c-4.2,11.8-5.9,24.4-5.2,36.9c-2.4,2-5.8,2.4-9.4,1.8c-9.8-1.6-21.6-10.1-21.6-10.1s3.7-100.7,6.5-104.5
	s0-25.5,0-25.5l4.5-35.2c0,0-0.7-59.7,5.9-70c5.7-8.9,7-24.6,7.2-28.8c0-0.7,0.1-1,0.1-1l10-12c0,0,96.6-7.2,103.8,0
	c1.8,1.8,2.9,5.8,3.5,10.9c2,15.6-0.3,41.2-0.3,41.2s-2.9,19-7,38.3c-2.5,11.6-2.5,23.6,0,35.2C937.7,610.6,939,624.3,942.8,637.4z"
	/>
<path class="st11" d="M936.8,788.6c-4.3,5.7-29.7,3.3-34,1.5c-2.6-1.1-2.4-6-1.7-11.2c0.4-3.3,1.1-6.5,1.4-9
	c0.7-6.2-2.1-18.8-2.1-18.8s5.7,6,7.1,0c0.6-2.6,2.7-4,4.9-4.7c3-0.9,6.1-0.7,9,0.6c4.5,1.9,12,6.1,10.6,11.7
	c-1.9,7.9,4.8,19.2,4.8,19.2c0.5,0.7,0.9,1.4,1.3,2.2C939.3,783,938.8,786.2,936.8,788.6z"/>
<path class="st12" d="M936.8,788.6c-4.3,5.7-29.7,3.3-34,1.5c-2.6-1.1-2.4-6-1.7-11.2c2.7,1.3,7.4,2.3,15.1,1.6
	c1.8-0.2,3.6-0.2,5.4-0.2c5.5,0.3,11,0.1,16.5-0.3C939.3,782.9,938.8,786.2,936.8,788.6z"/>
<path class="st12" d="M848.4,644.3c1.7,22.4-0.3,56.9-7.2,75.5c-4.2,11.8-5.9,24.4-5.2,36.9c-2.4,2-5.8,2.4-9.4,1.8
	c2.1-14.6,10.9-77.2,16.7-126.7c6.4-56.4,36.7-95.2,36.7-95.2l6,6.6C869.4,551.9,848.4,644.3,848.4,644.3z"/>
<path class="st13" d="M926.5,281.8l-4.2,20.7l-20.6,34.7l-25.4-10.9c0,0-34.6-36.2-12.8-41.4c2.6-0.6,5.1-1.7,7.2-3.2
	c4.3-3.2,5.6-7.9,5.6-12.5c0-7.6-3.5-14.8-3.5-14.8l44.5-14c-1.8,5.8-2.9,11.9-3.2,18c-0.3,12.1,4.2,18.1,7.9,20.9
	C923.2,280.5,924.8,281.3,926.5,281.8z"/>
<path class="st12" d="M917.2,240.5c-1.8,5.8-2.9,11.9-3.2,18c-0.8,1-1.7,1.9-2.6,2.7c-9.4,8.9-22.9,12-35.2,8
	c0-7.6-3.5-14.8-3.5-14.8L917.2,240.5z"/>
<path class="st13" d="M922.3,234.8c0,19.4-15.8,35.2-35.2,35.2c-19.4,0-35.2-15.8-35.2-35.2c0-19.4,15.8-35.2,35.2-35.2c0,0,0,0,0,0
	c19.3-0.1,35.1,15.6,35.1,34.9C922.3,234.6,922.3,234.7,922.3,234.8z"/>
<path class="st12" d="M926.5,281.8l-4.2,20.7l-20.6,34.7l-25.4-10.9c0,0-34.6-36.2-12.8-41.4c2.6-0.6,5.1-1.7,7.2-3.2
	c-3.9,10.8,12.3,33.2,12.3,33.2c1.9,2.8,6.2,1,6.2,1c10.4-1.6,29.6-31.6,32.8-36.6C923.2,280.5,924.8,281.3,926.5,281.8z"/>
<path class="st12" d="M946.4,482.4c-6.1,1.4-40,8.9-52.9,7c-14.1-2.1-41.6-3.4-41.6-3.4s-17.5,0.9-22.9-1.5c0-0.7,0.1-1,0.1-1l10-12
	c0,0,96.6-7.2,103.8,0C944.6,473.3,945.7,477.3,946.4,482.4z"/>
<path class="st14" d="M882.8,316c0,0-18.2-25.2-11.3-35l-30.7,12.6c0,0-18.5-2.2-25.2,25.4c-1.1,4.6-1.5,9.3-1.1,14
	c0.2,4.2-0.3,11.5-5.1,21c-7.6,15.2-5.9,50,9.7,53.5c15.5,3.5,21,1.7,21,1.7s-2.1,63.1-11,70.4c-9,7.2,22.9,5.5,22.9,5.5
	s27.5,1.4,41.6,3.4c14.1,2.1,53.8-7.2,53.8-7.2s-5.9-26.6-7.9-43.5s-6.9-52.9-6.9-52.9l35.2-47.6c0,0,6.2-28.8-15.5-41.6
	c-21.7-12.8-29.9-15.9-29.9-15.9s-21.8,35.5-33.2,37.2C889.1,317,884.7,318.8,882.8,316z"/>
<path class="st12" d="M842.5,326c0,0-0.3,11.4,1.7,15.9c2.1,4.5,9.7,29.3,9.7,29.3h-17.2c0,0,9.3-10,8.6-14.8
	C844.5,351.5,842.5,326,842.5,326z"/>
<path class="st13" d="M893.5,411.9c0,0-38.1-9.3-41.6-17.2s-13.3-25.7-13.3-25.7l4-5.4l18.5,14.5c0,0,22.1,17.6,32.4,19.3
	C903.9,399.1,893.5,411.9,893.5,411.9z"/>
<path class="st15" d="M893.5,411.9c0,0-38.1-9.3-41.6-17.2s-13.3-25.7-13.3-25.7l4-5.4l18.5,14.5c0,0,22.1,17.6,32.4,19.3
	C903.9,399.1,893.5,411.9,893.5,411.9z"/>
<path class="st13" d="M926.5,367v20.7h-3.3c-16.4,0-32.5,4.2-46.9,12.1l-6.2,3.5l-1.7,0.9l-10.7-24.1l10-9h0.5
	c2.4,0.2,13,1.1,17.5-0.4c4.3-1.4,9.5-6,22.1-2.8c6.2,1.6,11.5,8.5,17.5,6.3L926.5,367z"/>
<path class="st12" d="M959.7,329.4l6.9,7.8V356c0,0-5.9,59.3-24.5,65.9c-18.6,6.6-51.9-3.8-51.9-3.8s-8.6-22.8-4.6-24.1
	c4-1.4,35.5-9.7,35.5-9.7s-0.4-34.8,6.5-45.1c0,0-4.5-32.4,11-33.1C954.2,305.3,959.7,329.4,959.7,329.4z"/>
<path class="st14" d="M960.8,329.4l6.9,7.8V356c0,0-5.8,59.3-24.5,65.9c-18.7,6.6-51.9-3.8-51.9-3.8s-8.6-22.8-4.6-24.1
	c4-1.4,35.5-9.7,35.5-9.7s-0.4-34.8,6.5-45.1c0,0-4.5-32.4,11-33.1C955.2,305.3,960.8,329.4,960.8,329.4z"/>
<path class="st12" d="M912.6,249.7c0.1-2.3,0.2-4.7-0.8-6.7c-1-2-3.3-3.7-5.5-3.2c-3,0.7-4.2,4.5-7.1,5.5c-2.4,0.8-5.1-0.9-6.3-3.2
	c-1.2-2.3-1.2-4.9-1.2-7.5c0-2.9,0-5.8,0-8.6c0-3.1-0.1-6.5-2-9c-2.4-3.1-8.1-4.4-11.8-4.3c-2.5,0-4.9,1-6.8,2.7
	c-2,1.7-4.4,3-7.1,2.5c-2.3-0.4-4.3-2-4.9-4.3v-0.1c11.7-15.5,33.8-18.5,49.3-6.8c15.5,11.7,18.5,33.8,6.8,49.3
	c-1.1,1.5-2.4,2.9-3.8,4.2C912,256.8,912.4,253.2,912.6,249.7z"/>
<path class="st16" d="M864,216.9c-2.3-0.4-4.3-2-4.9-4.3c-0.3-1.1-0.2-2.3-0.5-3.4c-0.8-2.7-3.7-4.1-5.6-6.2
	c-3.9-4.1-3.6-10.9-0.9-15.9c2.2-4,6.5-7.4,11-6.6c2.8,0.5,5.2,2.5,8,2.7c2.8,0.2,5.2-1.4,7.7-2.5c6-2.7,12.7-3.3,19.1-1.7
	c2,0.4,3.8,1.3,5.2,2.6c1,1.3,1.9,2.6,2.8,3.9c3.2,4.1,9,4.9,14.1,5.8c5.1,0.9,10.9,3,12.6,7.9c1.1,3.3,0,6.8-0.6,10.2
	c-0.2,0.7-0.2,1.4,0.1,2.1c0.8,1.3,2.8,0.8,4.3,1.1c2.9,0.6,3.7,4.4,3.7,7.3c0.1,3.4,0.2,6.8,0.3,10.2c0.4,3.2-0.9,6.4-3.2,8.5
	l-11.4,13.7c-5.1,6.1-10.4,13.1-9.4,21c-2.4,1.1-5.2-1-6-3.5s-0.1-5.2,0.4-7.8c0.9-4.4,1.5-8.9,1.8-13.5c0.1-2.3,0.2-4.7-0.8-6.7
	s-3.3-3.7-5.5-3.2c-3,0.7-4.2,4.5-7.1,5.5c-2.4,0.8-5.1-0.9-6.3-3.2s-1.2-4.9-1.2-7.5v-8.6c0-3.1-0.1-6.5-2-9
	c-2.4-3.1-8.1-4.4-11.8-4.3c-2.5,0-4.9,1-6.8,2.7C869.1,216.1,866.8,217.3,864,216.9z"/>
<path class="st12" d="M867.7,372.2c0,0-3.4,24.1,2.8,33.8c0,0-12.6,5.2-30.4,4.1l-2.1-37.9H867.7z"/>
<path class="st12" d="M870,403.3l-1.7,0.9l-10.7-24.1l10-9h0.5l0,0C868,372.3,865.2,393.1,870,403.3z"/>
<path class="st14" d="M867.7,371.2c0,0-3.4,24.1,2.8,33.8c0,0-12.6,5.2-30.4,4.1L828,371.2L867.7,371.2z"/>
<path class="st11" d="M837.8,773.9c-0.4,3.5-3.2,6.3-6.7,6.8c-9.3,1.4-31.9,5-37.6,7.7c-7.2,3.4-35.9,1-37.2-2.4
	c-0.4-1.4-0.2-2.9,0.5-4.1c1-2.1,2.6-3.8,4.7-5c0.7-0.4,1.4-0.7,2.1-0.9c5.4-1.8,15.6-5.6,18.3-9.6c0,0,12.7-11.1,16.3-17.1
	c1.4-2.4,3.9-3.9,6.6-4.1c3-0.1,6.4,1.4,7.8,8c0,0,16.5,9.4,21,1.2c0,0,0.7,12.7,3.4,16.2l0,0C837.7,771.5,838,772.7,837.8,773.9z"
	/>
<path class="st12" d="M837.8,773.9c-0.4,3.5-3.2,6.3-6.7,6.8c-9.3,1.4-31.9,5-37.6,7.7c-7.2,3.4-35.9,1-37.2-2.4
	c-0.4-1.4-0.2-2.9,0.5-4.1c1-2.1,2.6-3.8,4.7-5c4.7,3.1,15,6.1,37.8,2.6c21.7-3.4,32.5-6.7,37.7-9l0,0
	C837.7,771.5,838,772.7,837.8,773.9z"/>
<g class="st1">
	<path d="M931.9,210v-0.2c0.5-2.6,1.2-5.3,1.1-7.8c-0.2,2.1-0.6,4.2-1.1,6.3C931.8,208.9,931.8,209.5,931.9,210z"/>
	<path d="M911.8,242.3c0.5,1.2,0.8,2.6,0.8,3.9c0.2-1.9-0.1-3.8-0.8-5.5c-0.9-2.1-3.2-3.7-5.5-3.2c-3,0.7-4.2,4.5-7.1,5.5
		c-2.4,0.8-5.1-0.9-6.3-3.2s-1.2-4.9-1.2-7.5c0-2.9,0-5.8,0-8.6c0-3.1-0.1-6.5-2-9c-2.4-3.1-8.1-4.4-11.8-4.3c-2.5,0-4.9,1-6.8,2.7
		c-2,1.7-4.4,3-7.1,2.5c-2.3-0.4-4.3-2-4.9-4.3c-0.3-1.1-0.2-2.3-0.5-3.4c-0.8-2.7-3.7-4.1-5.6-6.2c-1.8-2-2.8-4.6-2.9-7.3
		c-0.3,3.2,0.8,6.4,2.9,8.8c1.9,2.1,4.8,3.5,5.6,6.2c0.3,1.1,0.3,2.3,0.5,3.4c0.7,2.3,2.6,3.9,4.9,4.3c2.8,0.4,5.1-0.8,7.1-2.5
		c1.8-1.7,4.2-2.7,6.8-2.7c3.7-0.1,9.4,1.2,11.8,4.3c1.9,2.5,2,5.9,2,9c0,2.9,0,5.8,0,8.6c0,2.6,0,5.2,1.2,7.5
		c1.2,2.3,3.8,4,6.3,3.2c2.9-0.9,4.2-4.8,7.1-5.5C908.6,238.6,910.9,240.2,911.8,242.3z"/>
	<path d="M940.2,232.8c-0.6,1.8-1.6,3.4-2.9,4.7c-3.8,4.6-7.6,9.1-11.4,13.7c-4.8,5.8-9.9,12.4-9.5,19.8c0.3-6.7,5-12.9,9.5-18.2
		l11.4-13.7c1.3-1.4,2.3-3,2.9-4.8c0.3-1.2,0.4-2.5,0.3-3.7C940.4,231.3,940.3,232.1,940.2,232.8z"/>
	<path d="M910.5,268.7c-0.2-0.6-0.3-1.2-0.3-1.9c-0.1,1.1,0,2.3,0.3,3.4c0.8,2.5,3.6,4.6,6,3.5c-0.1-0.5-0.1-1-0.1-1.5
		C914,273.2,911.2,271.2,910.5,268.7z"/>
</g>
<path class="st12" d="M795.8,752.4c0,0,3.6,6.3,16.7,0.8"/>
<path class="st12" d="M906.3,753.9c0,0,11.3,13.3,25.5,4.3"/>
<path class="st12" d="M939.1,597c0,0-8,5-8.2,7.8s4.1-2.1,4.1-2.1L939.1,597z"/>
<path class="st12" d="M942.2,635.2c-2.8,2.3-6.2,3.6-9.8,3.8c-5.9,0.3-5.5,8-1.6,5.7S942.2,635.2,942.2,635.2z"/>
<path class="st12" d="M943.7,640.2c0,0-3.8,18.8-6.9,15.1"/>
<g>
	<g class="st17">
		<path class="st5" d="M626.4,121c-0.4,0-0.7-0.1-1-0.2c-0.3-0.1-0.5-0.3-0.7-0.4c-0.2-0.2-0.4-0.4-0.5-0.5
			c-0.1-0.2-0.2-0.3-0.3-0.4l0.8-0.9c0.1,0.2,0.3,0.4,0.4,0.5s0.3,0.3,0.5,0.4c0.2,0.1,0.4,0.2,0.7,0.2c0.3,0,0.6-0.1,0.8-0.2
			c0.2-0.1,0.4-0.3,0.5-0.6s0.2-0.5,0.2-0.8v-5.8h1.3v5.9c0,0.3-0.1,0.7-0.2,1s-0.3,0.6-0.5,0.9c-0.2,0.3-0.5,0.5-0.9,0.6
			C627.2,120.9,626.9,121,626.4,121z M630.5,113.6h-4.2v-1.2h4.2V113.6z"/>
		<path class="st5" d="M637.3,120.1L637.3,120.1c-0.2,0.2-0.4,0.3-0.7,0.5c-0.3,0.1-0.6,0.3-0.9,0.4c-0.3,0.1-0.6,0.1-1,0.1
			c-0.7,0-1.2-0.1-1.8-0.4s-0.9-0.7-1.2-1.2s-0.4-1-0.4-1.7c0-0.5,0.1-1,0.3-1.4s0.4-0.8,0.7-1.1c0.3-0.3,0.7-0.5,1-0.7
			s0.8-0.2,1.2-0.2c0.5,0,1,0.1,1.5,0.4c0.4,0.3,0.8,0.6,1,1.1c0.3,0.5,0.4,1,0.4,1.6l0,0.5h-5.2l-0.3-1h4.4l-0.2,0.2v-0.3
			c0-0.3-0.1-0.5-0.3-0.7s-0.4-0.4-0.6-0.5c-0.2-0.1-0.5-0.2-0.8-0.2c-0.4,0-0.7,0.1-1,0.2c-0.3,0.1-0.6,0.4-0.7,0.7
			c-0.2,0.3-0.3,0.7-0.3,1.3c0,0.4,0.1,0.8,0.3,1.2c0.2,0.3,0.5,0.6,0.8,0.8c0.3,0.2,0.7,0.3,1.2,0.3c0.4,0,0.8-0.1,1.1-0.2
			s0.5-0.3,0.7-0.5L637.3,120.1z"/>
		<path class="st5" d="M645.6,115.7h-4.1v-1.2h4.1V115.7z M644.1,120.9h-1.3v-8h1.3V120.9z"/>
		<path class="st5" d="M652.1,120.1L652.1,120.1c-0.2,0.2-0.4,0.3-0.7,0.5c-0.3,0.1-0.6,0.3-0.9,0.4c-0.3,0.1-0.6,0.1-1,0.1
			c-0.7,0-1.2-0.1-1.8-0.4s-0.9-0.7-1.2-1.2s-0.4-1-0.4-1.7c0-0.5,0.1-1,0.3-1.4s0.4-0.8,0.7-1.1c0.3-0.3,0.7-0.5,1-0.7
			s0.8-0.2,1.2-0.2c0.5,0,1,0.1,1.5,0.4c0.4,0.3,0.8,0.6,1,1.1c0.3,0.5,0.4,1,0.4,1.6l0,0.5h-5.2l-0.3-1h4.4l-0.2,0.2v-0.3
			c0-0.3-0.1-0.5-0.3-0.7s-0.4-0.4-0.6-0.5c-0.2-0.1-0.5-0.2-0.8-0.2c-0.4,0-0.7,0.1-1,0.2c-0.3,0.1-0.6,0.4-0.7,0.7
			c-0.2,0.3-0.3,0.7-0.3,1.3c0,0.4,0.1,0.8,0.3,1.2c0.2,0.3,0.5,0.6,0.8,0.8c0.3,0.2,0.7,0.3,1.2,0.3c0.4,0,0.8-0.1,1.1-0.2
			s0.5-0.3,0.7-0.5L652.1,120.1z"/>
		<path class="st5" d="M657.6,114.5l1.9,4.8l-0.2,0.1l2.1-4.9h1.3l-2.8,6.4h-0.9l-2.7-6.4H657.6z"/>
		<path class="st5" d="M669.8,117.7c0,0.6-0.1,1.2-0.4,1.7c-0.3,0.5-0.7,0.9-1.2,1.2c-0.5,0.3-1,0.4-1.6,0.4c-0.6,0-1.2-0.1-1.7-0.4
			c-0.5-0.3-0.9-0.7-1.2-1.2c-0.3-0.5-0.4-1.1-0.4-1.7c0-0.6,0.1-1.2,0.4-1.7c0.3-0.5,0.7-0.9,1.2-1.2c0.5-0.3,1-0.4,1.7-0.4
			c0.6,0,1.2,0.1,1.6,0.4c0.5,0.3,0.9,0.7,1.2,1.2C669.6,116.5,669.8,117.1,669.8,117.7z M668.5,117.7c0-0.4-0.1-0.8-0.2-1.1
			c-0.2-0.3-0.4-0.6-0.7-0.8s-0.6-0.3-1-0.3s-0.7,0.1-1,0.3s-0.5,0.4-0.7,0.8c-0.2,0.3-0.3,0.7-0.2,1.1c0,0.4,0.1,0.8,0.2,1.1
			c0.2,0.3,0.4,0.6,0.7,0.8c0.3,0.2,0.6,0.3,1,0.3s0.7-0.1,1-0.3c0.3-0.2,0.5-0.4,0.7-0.8C668.4,118.5,668.5,118.1,668.5,117.7z"/>
		<path class="st5" d="M671.9,113.1c-0.3,0-0.5-0.1-0.6-0.2c-0.1-0.1-0.2-0.3-0.2-0.6c0-0.2,0.1-0.4,0.2-0.5
			c0.1-0.2,0.3-0.2,0.6-0.2s0.5,0.1,0.6,0.2c0.1,0.1,0.2,0.3,0.2,0.6c0,0.2-0.1,0.4-0.2,0.5S672.1,113.1,671.9,113.1z M672.5,120.9
			h-0.7h-0.6v-6.4h1.3V120.9z"/>
		<path class="st5" d="M677.9,116.2c-0.2-0.2-0.5-0.4-0.8-0.6c-0.3-0.1-0.6-0.2-0.8-0.2c-0.1,0-0.3,0-0.4,0c-0.1,0-0.2,0.1-0.4,0.1
			s-0.2,0.1-0.3,0.2s-0.1,0.2-0.1,0.4c0,0.2,0.1,0.3,0.2,0.5s0.3,0.2,0.5,0.3s0.4,0.1,0.7,0.2c0.2,0.1,0.5,0.1,0.7,0.2
			c0.2,0.1,0.5,0.2,0.7,0.4c0.2,0.1,0.4,0.3,0.5,0.6c0.1,0.2,0.2,0.5,0.2,0.9c0,0.4-0.1,0.7-0.3,1c-0.2,0.3-0.5,0.5-0.9,0.6
			c-0.4,0.1-0.7,0.2-1.1,0.2c-0.5,0-0.9-0.1-1.4-0.2c-0.4-0.2-0.8-0.5-1.1-0.9l0.9-0.7c0.2,0.3,0.5,0.4,0.7,0.6s0.6,0.2,1,0.2
			c0.1,0,0.2,0,0.3,0s0.2-0.1,0.3-0.1c0.1-0.1,0.2-0.1,0.2-0.2c0.1-0.1,0.1-0.2,0.1-0.4c0-0.2-0.1-0.3-0.2-0.5
			c-0.1-0.1-0.3-0.2-0.5-0.3s-0.4-0.1-0.6-0.2c-0.3-0.1-0.5-0.2-0.8-0.2c-0.3-0.1-0.5-0.2-0.7-0.4c-0.2-0.1-0.4-0.3-0.5-0.6
			c-0.1-0.2-0.2-0.5-0.2-0.9c0-0.4,0.1-0.7,0.3-1c0.2-0.3,0.5-0.5,0.8-0.6c0.3-0.1,0.7-0.2,1.1-0.2c0.3,0,0.5,0,0.8,0.1
			c0.3,0.1,0.6,0.2,0.8,0.3c0.3,0.1,0.5,0.3,0.7,0.6L677.9,116.2z"/>
		<path class="st5" d="M680.4,121c-0.3,0-0.5-0.1-0.6-0.2c-0.1-0.2-0.2-0.4-0.2-0.7c0-0.2,0.1-0.4,0.2-0.6c0.1-0.2,0.3-0.3,0.6-0.3
			s0.5,0.1,0.6,0.2c0.1,0.2,0.2,0.4,0.2,0.7c0,0.2-0.1,0.4-0.2,0.6S680.7,121,680.4,121z"/>
	</g>
</g>
<path class="st5" d="M474.2,245.1c-1.9-5.8,0.5-20.2,8.3-25.3c1.8-1.2,7.4,3.2,9.3,2.5c2.2-0.8,7.6-2.7,19.7-2.7
	c12.1,0,18.9,2,21.1,2.7c1.5,0.5,6.8-3.4,8.2-2.5c8.4,5,11.4,19.2,9.4,25.3c-1.5,4.6-8.2,7.9-17.1,9.8c-6.3,1.3-14.3-3.9-21.7-3.9
	c-7.3,0-14,5.2-20.2,3.9C482.5,253,475.7,249.7,474.2,245.1z M495.5,232.2c-2.3,0-4.1,2.7-4.1,6.1s1.8,6.1,4.1,6.1s4.1-2.7,4.1-6.1
	S497.7,232.2,495.5,232.2 M529.1,232.2c-2.3,0-4.1,2.7-4.1,6.1s1.8,6.1,4.1,6.1c2.3,0,4.1-2.7,4.1-6.1S531.4,232.2,529.1,232.2z"/>
</svg>
