<?xml version="1.0" encoding="UTF-8" standalone="no"?>
<svg
   xmlns:dc="http://purl.org/dc/elements/1.1/"
   xmlns:cc="http://creativecommons.org/ns#"
   xmlns:rdf="http://www.w3.org/1999/02/22-rdf-syntax-ns#"
   xmlns:svg="http://www.w3.org/2000/svg"
   xmlns="http://www.w3.org/2000/svg"
   xmlns:sodipodi="http://sodipodi.sourceforge.net/DTD/sodipodi-0.dtd"
   xmlns:inkscape="http://www.inkscape.org/namespaces/inkscape"
   sodipodi:docname="robotphone.svg"
   inkscape:version="1.0 (4035a4fb49, 2020-05-01)"
   id="svg8"
   version="1.1"
   viewBox="0 0 285.74999 619.12502"
   height="2340"
   width="1080">
  <defs
     id="defs2">
    <inkscape:path-effect
       hide_knots="false"
       only_selected="false"
       apply_with_radius="true"
       apply_no_radius="true"
       use_knot_distance="true"
       flexible="false"
       chamfer_steps="1"
       radius="14"
       mode="F"
       method="auto"
       unit="px"
       satellites_param="F,0,0,1,0,3.7041667,0,1 @ F,0,0,1,0,3.7041667,0,1 @ F,0,0,1,0,3.7041667,0,1 @ F,0,0,1,0,3.7041667,0,1"
       lpeversion="1"
       is_visible="true"
       id="path-effect1111"
       effect="fillet_chamfer" />
    <filter
       height="1.0017781"
       y="-0.00088903881"
       width="1.0001326"
       x="-6.6315255e-05"
       id="filter1107"
       style="color-interpolation-filters:sRGB"
       inkscape:collect="always">
      <feGaussianBlur
         id="feGaussianBlur1109"
         stdDeviation="0.0044804736"
         inkscape:collect="always" />
    </filter>
  </defs>
  <sodipodi:namedview
     inkscape:window-maximized="1"
     inkscape:window-y="-11"
     inkscape:window-x="-11"
     inkscape:window-height="1346"
     inkscape:window-width="2160"
     units="px"
     showgrid="false"
     inkscape:document-rotation="0"
     inkscape:current-layer="layer1"
     inkscape:document-units="mm"
     inkscape:cy="616.13098"
     inkscape:cx="80.082635"
     inkscape:zoom="0.49497475"
     inkscape:pageshadow="2"
     inkscape:pageopacity="0.0"
     borderopacity="1.0"
     bordercolor="#666666"
     pagecolor="#ffffff"
     id="base" />
  <metadata
     id="metadata5">
    <rdf:RDF>
      <cc:Work
         rdf:about="">
        <dc:format>image/svg+xml</dc:format>
        <dc:type
           rdf:resource="http://purl.org/dc/dcmitype/StillImage" />
        <dc:title></dc:title>
      </cc:Work>
    </rdf:RDF>
  </metadata>
  <g
     id="layer1"
     inkscape:groupmode="layer"
     inkscape:label="Calque 1">
    <rect
       y="-1.0488195"
       x="-3.2104433"
       height="623.36237"
       width="290.55765"
       id="rect833"
       style="fill:#faf7ff;fill-opacity:1;stroke:#000000;stroke-width:0.246965" />
    <g
       transform="matrix(0.57180952,0,0,0.57180952,215.13634,19.740707)"
       id="g849"
       style="fill:#000000;opacity:0.12">
      <path
         d="M 0,0 H 24 V 24 H 0 Z"
         fill="none"
         id="path835" />
      <path
         style="stroke-width:0.847218"
         d="m 17.420085,7.4084691 1.694437,1.6944364 c 4.210674,-4.2106742 11.039252,-4.2106742 15.249926,0 l 1.694436,-1.6944364 c -5.142614,-5.142614 -13.487712,-5.142614 -18.638799,0 z m 6.777745,6.7777449 2.541655,2.541655 2.541654,-2.541655 c -1.39791,-1.406382 -3.676927,-1.406382 -5.083309,0 z m -3.388872,-3.388872 1.694436,1.694436 c 2.338322,-2.338322 6.133859,-2.338322 8.472181,0 l 1.694436,-1.694436 c -3.270261,-3.2702624 -8.582319,-3.2702624 -11.861053,0 z"
         id="path837" />
    </g>
    <g
       style="opacity:0.12"
       transform="matrix(0.49696063,0,0,0.49696063,236.94543,19.366649)"
       id="g865">
      <path
         d="M 0,0 H 24 V 24 H 0 Z"
         fill="none"
         id="path851" />
      <path
         d="m 17,4 h 3 V 20 H 17 Z M 5,14 h 3 v 6 H 5 Z m 6,-5 h 3 v 11 h -3 z"
         id="path853" />
    </g>
    <g
       style="opacity:0.12"
       transform="matrix(0,0.64406287,-0.64406287,0,266.76846,18.378392)"
       id="g881">
      <path
         d="M 0,0 H 24 V 24 H 0 Z"
         fill="none"
         id="path867" />
      <path
         d="M 15.67,4 H 14 V 2 H 10 V 4 H 8.33 C 7.6,4 7,4.6 7,5.33 V 20.66 C 7,21.4 7.6,22 8.33,22 h 7.33 C 16.4,22 17,21.4 17,20.67 V 5.33 C 17,4.6 16.4,4 15.67,4 Z"
         id="path869" />
    </g>
    <circle
       r="8.6934528"
       cy="25.702381"
       cx="26.080357"
       id="path883"
       style="fill:#ffffff;fill-opacity:1;stroke:#000000;stroke-width:0.264583;stroke-opacity:0" />
    <path
       transform="matrix(0.78913367,0,0,0.39370982,32.831303,369.49418)"
       sodipodi:type="rect"
       d="m 60.400593,598.71429 154.743447,0 a 3.7041667,3.7041667 45 0 1 3.70417,3.70417 v 4.68691 a 3.7041667,3.7041667 135 0 1 -3.70417,3.70416 H 60.400593 a 3.7041667,3.7041667 45 0 1 -3.704167,-3.70416 v -4.68691 a 3.7041667,3.7041667 135 0 1 3.704167,-3.70417 z"
       inkscape:path-effect="#path-effect1111"
       y="598.71429"
       x="56.696426"
       height="12.095239"
       width="162.15178"
       id="rect885"
       style="fill:#e1e1e1;fill-opacity:1;stroke:#000000;stroke-width:0.265;stroke-linecap:round;stroke-linejoin:round;stroke-miterlimit:4;stroke-dasharray:none;stroke-opacity:0;filter:url(#filter1107)" />
    <path
       transform="scale(0.26458333)"
       id="path1113"
       d="m 955.91215,109.62973 c -1.22744,-1.22744 -1.23973,-1.33292 -1.23973,-10.639807 0,-9.1487 0.26671,-11.009123 1.71711,-11.977581 0.30565,-0.20409 9.46015,-0.374553 20.34332,-0.378807 l 19.78758,-0.0077 1.04681,1.330805 c 0.69591,0.884705 1.04681,2.069853 1.04681,3.535534 v 2.204729 h 2.27285 2.2728 v 4.798225 4.798222 h -2.2103 -2.21026 l -0.23732,2.86183 c -0.40966,4.93988 0.63998,4.71431 -21.9375,4.71431 h -19.41244 z"
       style="fill:#11e0ee;stroke:none;stroke-width:0.505076;fill-opacity:0.06666667;opacity:0.12" />
  </g>
</svg>
