<?xml version="1.0" encoding="utf-8"?>
<!-- Generator: Adobe Illustrator 25.2.0, SVG Export Plug-In . SVG Version: 6.00 Build 0)  -->
<svg version="1.1" id="b2448b99-d97f-419e-8dc3-d5510f0392fe"
	 xmlns="http://www.w3.org/2000/svg" xmlns:xlink="http://www.w3.org/1999/xlink" x="0px" y="0px" viewBox="0 0 709.5 558.6"
	 style="enable-background:new 0 0 709.5 558.6;" xml:space="preserve">
<style type="text/css">
	.st0{fill:#EAEAEA;}
	.st1{fill:#FFFFFF;}
	.st2{fill:#6219D8;}
	.st3{fill:#2F2E41;}
	.st4{fill:#FFB8B8;}
	.st5{fill:#3F3D56;}
	.st6{opacity:0.3;enable-background:new    ;}
</style>
<rect x="0.3" y="0.4" class="st0" width="643.9" height="412.4"/>
<rect x="18.7" y="52.1" class="st1" width="607" height="336.2"/>
<rect class="st2" width="643.9" height="27.4"/>
<circle class="st1" cx="20.3" cy="14" r="5.1"/>
<circle class="st1" cx="39.6" cy="14" r="5.1"/>
<circle class="st1" cx="58.8" cy="14" r="5.1"/>
<rect x="73.8" y="87" class="st0" width="156" height="266.5"/>
<rect x="256.7" y="87" class="st2" width="130" height="73.3"/>
<rect x="256.7" y="180.7" class="st0" width="130" height="66.6"/>
<rect x="256.7" y="280.1" class="st0" width="130" height="73.3"/>
<rect x="414.6" y="87" class="st0" width="156" height="116.1"/>
<rect x="414.6" y="237.3" class="st0" width="156" height="116.1"/>
<image style="overflow:visible;" width="260" height="260" xlink:href="sfr-logo-1.png"  transform="matrix(0.3767 0 0 0.3767 448.0461 96.0644)">
</image>
<image style="overflow:visible;" width="1920" height="1080" xlink:href="Couleur-logo-Leroy-Merlin.png"  transform="matrix(5.404941e-02 0 0 5.404941e-02 270.5136 188.94)">
</image>
<image style="overflow:visible;" width="500" height="500" xlink:href="5db03c5da0aa2b0a3bb8bf79_decathlon-logo-w.png"  transform="matrix(0.2511 0 0 0.2511 429.7996 234.3956)">
</image>
<path class="st3" d="M510.5,211.4v-25c0-18.5,15-33.5,33.5-33.5s33.5,15,33.5,33.5l0,0v25c0,2.5-2,4.5-4.5,4.5h-58
	C512.5,215.9,510.5,213.9,510.5,211.4z"/>
<polygon class="st4" points="593.5,536.8 581.7,540.1 563.5,496 580.9,491.2 "/>
<path class="st3" d="M572.3,539l22.8-6.3l0,0l4,14.3l0,0l-37.1,10.3l0,0l0,0C559.8,549.4,564.4,541.2,572.3,539z"/>
<polygon class="st4" points="470.3,545.9 458.1,545.9 452.2,498.6 470.3,498.6 "/>
<path class="st3" d="M449.3,542.4H473l0,0v14.9l0,0h-38.5l0,0l0,0C434.4,549,441.1,542.4,449.3,542.4z"/>
<path class="st4" d="M455.5,281.6c3.3,4.5,9.6,5.4,14.1,2.1c0.5-0.4,0.9-0.7,1.3-1.2l32.6,14.7l-3-18.3l-30.5-11.1
	c-4.3-3.6-10.7-2.9-14.2,1.4C452.9,272.7,452.7,277.9,455.5,281.6L455.5,281.6z"/>
<path class="st3" d="M523.3,391.8c-10.2,0-20.8-1.5-29.7-6.1c-9.6-4.8-16.7-13.3-19.7-23.6c-4.6-14.7,1.2-29.1,6.9-43.1
	c3.5-8.7,6.8-16.8,7.7-24.9l0.3-2.9c1.3-12.8,2.5-23.9,8.9-28.1c3.3-2.2,7.8-2.3,13.6-0.4l55,17.9l-2,104.5l-0.3,0.1
	C563.6,385.5,544.2,391.8,523.3,391.8z"/>
<path class="st2" d="M510.2,230.3c0,0,27-8,48-5c0,0-12,66-8,88s-69.5,8.5-54.5-12.5l5-25c0,0-10-10-1-22L510.2,230.3z"/>
<path class="st3" d="M496.9,389.9l-33.3-6.2l11.6-89.4c0.8-2.5,18.8-59.1,27-62.2c5.9-2.1,12-3.8,18.2-5l1.2-0.2l-6.7,10l-26.6,63.7
	L496.9,389.9z"/>
<path class="st3" d="M479.6,534.9l-43-7.2l24.1-98.5l35.9-134.7l0.4,2.4c0,0.2,3.4,17.8,53.2,10l0.4-0.1l0.1,0.4l60.2,212.5l-49,8.2
	l-44.7-155.1L479.6,534.9z"/>
<path class="st3" d="M539.2,406.6l0-0.8c0-0.8,3-84.4,2-118c-1-33.7,9.9-62.9,10-63.2l0.1-0.2l0.2-0.1c14.1-4,26.4,8,26.5,8.1
	l0.2,0.2l-4,33.2l17.2,120.6L539.2,406.6z"/>
<circle class="st4" cx="537.1" cy="190.8" r="24.6"/>
<path class="st3" d="M502.6,188.4c0-14.6,11.9-26.5,26.5-26.5h5c14.6,0,26.5,11.9,26.5,26.5v0.5H550l-3.6-10.1l-0.7,10.1h-5.5
	l-1.8-5.1l-0.4,5.1h-35.5V188.4z"/>
<path class="st3" d="M534.7,218.8c-1-1.4-1.1-3.2-0.4-4.7c5.3-10.1,12.7-28.7,2.9-40.2l-0.7-0.8h28.6V216l-26,4.6
	c-0.3,0-0.5,0.1-0.8,0.1C536.9,220.6,535.5,219.9,534.7,218.8z"/>
<path class="st5" d="M419.6,41.5c-57-48.1-142.2-40.9-190.3,16.1s-40.9,142.2,16.1,190.3c53.3,45,132.1,42,181.8-7l165.6,139.7
	c5.2,4.4,13.1,3.8,17.5-1.5c4.4-5.2,3.8-13.1-1.5-17.5l0,0L443.3,221.9C483.2,164.7,472.9,86.5,419.6,41.5z M408.9,208.5
	c-36,42.7-99.8,48.1-142.5,12.1c-42.7-36-48.1-99.8-12.1-142.5s99.8-48.1,142.5-12.1h0C439.5,102,444.9,165.8,408.9,208.5
	C408.9,208.5,408.9,208.5,408.9,208.5z"/>
<path class="st6" d="M266.4,220.6c-40.2-34-47.7-93.1-17.2-136c-1.9,1.9-3.8,4-5.6,6.1c-36,42.7-30.6,106.5,12.1,142.5
	c42.7,36,106.5,30.6,142.5-12.1c1.8-2.1,3.5-4.3,5.1-6.6C366.2,251.9,306.6,254.5,266.4,220.6z"/>
<path class="st4" d="M545,324.5c5.4,1.3,10.8-2,12.2-7.4c0.1-0.6,0.2-1.2,0.3-1.8l34.4-9.6l-14-12.2l-30.6,10.9
	c-5.6,0-10.1,4.6-10.1,10.1C537.2,319.4,540.4,323.5,545,324.5z"/>
<path class="st3" d="M559.3,319.5l-2.1-19.9l28.8-15.9L567.2,261l3.1-25.5l7.6-3.3l0.2,0.3c3.6,4.6,35.1,45.3,35.1,50.3
	c0,5.2-6,20.3-14.3,24.4c-8,4-37.8,11.7-39.1,12L559.3,319.5z"/>
<sodipodi:namedview  bordercolor="#666666" borderopacity="1" gridtolerance="10" guidetolerance="10" id="namedview7" objecttolerance="10" pagecolor="#ffffff" showgrid="false">
	</sodipodi:namedview>
<path id="path4" class="st1" d="M284.2,131.4c-1.9-5.8,0.5-20.3,8.4-25.5c1.8-1.2,7.4,3.2,9.4,2.6c2.2-0.8,7.7-2.8,19.8-2.8
	c12.2,0,19,2,21.2,2.8c1.5,0.5,6.8-3.4,8.3-2.6c8.4,5,11.5,19.3,9.5,25.5c-1.5,4.6-8.2,7.9-17.1,9.8c-6.3,1.4-14.4-3.9-21.8-3.9
	c-7.4,0-14,5.2-20.3,3.9C292.4,139.4,285.7,136.1,284.2,131.4z M305.5,118.5c-2.3,0-4.1,2.8-4.1,6.1s1.8,6.1,4.1,6.1
	s4.1-2.8,4.1-6.1S307.8,118.5,305.5,118.5 M339.3,118.5c-2.3,0-4.1,2.8-4.1,6.1s1.8,6.1,4.1,6.1s4.1-2.8,4.1-6.1
	S341.6,118.5,339.3,118.5L339.3,118.5z"/>
<sodipodi:namedview  bordercolor="#666666" borderopacity="1" fit-margin-bottom="0" fit-margin-left="0" fit-margin-right="0" fit-margin-top="0" gridtolerance="10" guidetolerance="10" id="namedview1508" objecttolerance="10" pagecolor="#ffffff" showgrid="false">
	</sodipodi:namedview>
<g id="Clip-2" transform="matrix(8.8626358,0,0,8.8626358,-0.00332125,-0.71787352)">
</g>
<image style="overflow:visible;" width="4150" height="1207" xlink:href="Partenaire-Accenture_logo-blanc.png"  transform="matrix(2.566123e-02 0 0 2.566123e-02 102.6292 231.7139)">
</image>
<image style="overflow:visible;" width="2451" height="571" xlink:href="Logo_Auchan.png"  transform="matrix(4.451666e-02 0 0 4.451666e-02 97.279 294.7716)">
</image>
<image style="overflow:visible;" width="379" height="212" xlink:href="sodexo-1.png"  transform="matrix(0.2636 0 0 0.2636 271.7965 287.1262)">
</image>
<image style="overflow:visible;" width="546" height="600" xlink:href="Peugeot_2021_Logo.svg.png"  transform="matrix(0.1657 0 0 0.1657 106.5977 109.209)">
</image>
</svg>
